# Blender 5.1.1
# www.blender.org
mtllib treea.mtl
o Cylinder.001
v 0.552125 2.092339 -0.610520
v 0.750707 2.092006 -0.248900
v 0.755804 2.091589 0.160878
v 0.552492 2.091458 0.520045
v 0.191835 2.091007 0.721391
v -0.216985 2.090793 0.720172
v -0.575124 2.091280 0.516798
v -0.772090 2.091482 0.160182
v -0.781776 2.092276 -0.250516
v -0.575369 2.092898 -0.607236
v -0.218329 2.092707 -0.813015
v 0.191606 2.092177 -0.808119
v 0.095018 3.259083 -0.045365
v 0.095309 3.259032 0.008571
v 0.068457 3.259179 0.055547
v 0.021498 3.259790 0.082524
v -0.032571 3.259893 0.082461
v -0.079382 3.259360 0.055388
v -0.106006 3.259526 0.008505
v -0.106024 3.258275 -0.045374
v -0.078885 3.257508 -0.091815
v -0.032371 3.257401 -0.118579
v 0.021263 3.257935 -0.118534
v 0.068041 3.257804 -0.092051
v 0.632437 1.860476 -0.758778
v 1.021345 1.711255 -0.296028
v 1.057871 1.649041 0.288695
v 0.736749 1.725280 0.734533
v 0.234060 1.817408 0.919580
v -0.446465 1.423793 1.104739
v -0.857032 1.585790 0.779169
v -1.228021 1.417408 0.281078
v -1.001586 1.764977 -0.366320
v -0.683226 1.814823 -0.788853
v -0.218642 1.741351 -1.066696
v 0.273267 1.634283 -1.121091
v -1.038860 1.727278 -0.311136
v -0.741945 1.815881 -0.710606
v -0.344748 1.747158 -1.040434
v 0.687399 1.859391 -0.733442
v 1.038538 1.710811 -0.338127
v 1.108858 1.621593 0.219888
v 0.762564 1.707366 0.710350
v 0.312911 1.552004 1.076841
v -0.318442 1.505373 1.133554
v -0.826310 1.543495 0.828018
v -0.625243 1.333663 1.043792
v -0.173085 1.446577 1.127313
v 0.182013 1.557502 1.059903
v -0.782984 1.429614 0.906998
v -1.147363 1.399774 0.436319
v -1.036705 1.448127 0.587994
v -0.633368 1.697118 -0.905940
v -0.520572 1.644681 -1.015101
v -0.502294 1.897473 -0.839248
v -0.537974 1.906628 -0.800548
v 0.911827 1.598897 -0.684687
v 1.077855 1.538628 -0.472947
v 1.040677 1.685381 -0.054518
v 0.849556 1.957758 -0.131740
v 0.974165 1.506476 0.535989
v 1.079062 1.515588 0.392625
v 0.528467 2.070091 -0.587169
v 0.718405 2.070091 -0.240165
v 0.723178 2.070091 0.152312
v 0.528526 2.070091 0.496189
v 0.183415 2.070091 0.688351
v -0.208786 2.070091 0.686943
v -0.550840 2.070091 0.493107
v -0.739506 2.070091 0.151202
v -0.749515 2.070091 -0.242325
v -0.552108 2.070091 -0.584025
v -0.210284 2.070091 -0.781019
v 0.183137 2.070091 -0.775863
v 0.617085 1.837563 -0.729807
v 0.988798 1.688009 -0.295499
v 1.032747 1.626500 0.267232
v 0.721829 1.702096 0.705552
v 0.236272 1.796057 0.885827
v -0.428748 1.402102 1.076180
v -0.826954 1.562875 0.766122
v -1.197078 1.394617 0.269982
v -0.973929 1.741376 -0.349644
v -0.666249 1.791499 -0.761145
v -0.219574 1.718391 -1.033955
v 0.265893 1.610941 -1.089456
v -1.005909 1.704627 -0.312215
v -0.714288 1.792280 -0.693930
v -0.329775 1.724038 -1.011428
v 0.658488 1.836160 -0.718459
v 1.011096 1.687582 -0.320594
v 1.076454 1.598191 0.221410
v 0.731644 1.684881 0.698587
v 0.297991 1.528821 1.047859
v -0.321082 1.483985 1.099855
v -0.815248 1.521576 0.796440
v -0.610137 1.311793 1.013901
v -0.174195 1.425167 1.093543
v 0.184224 1.536151 1.026150
v -0.771921 1.407696 0.875420
v -1.118046 1.377312 0.420958
v -1.006626 1.425213 0.574947
v -0.616390 1.673794 -0.878231
v -0.505600 1.621562 -0.986095
v -0.486848 1.873277 -0.811391
v -0.521484 1.882318 -0.773398
v 0.883786 1.575652 -0.668151
v 1.050414 1.515399 -0.455415
v 1.008273 1.661979 -0.052996
v 0.817067 1.934445 -0.130796
v 0.946459 1.484011 0.517885
v 1.053938 1.493047 0.371162
v 0.077140 3.259021 -0.040537
v 0.077379 3.258979 0.003803
v 0.055304 3.259100 0.042422
v 0.016700 3.259602 0.064600
v -0.027749 3.259687 0.064547
v -0.066233 3.259248 0.042291
v -0.088120 3.259384 0.003749
v -0.088134 3.258357 -0.040544
v -0.065823 3.257726 -0.078723
v -0.027585 3.257638 -0.100725
v 0.016507 3.258077 -0.100688
v 0.054963 3.257969 -0.078917
vn 0.2112 0.5559 -0.8040
vn 0.1383 0.8364 -0.5304
vn 0.3879 0.8336 -0.3932
vn 0.5894 0.5610 -0.5813
vn -0.2002 0.5686 -0.7979
vn -0.1406 0.8356 -0.5310
vn -0.5798 0.5739 -0.5784
vn -0.3862 0.8354 -0.3912
vn -0.8034 0.5598 -0.2028
vn -0.5316 0.8347 -0.1438
vn -0.8099 0.5422 0.2237
vn -0.5321 0.8349 0.1405
vn -0.6027 0.5393 0.5881
vn -0.3949 0.8314 0.3910
vn -0.2033 0.5288 0.8241
vn -0.1438 0.8312 0.5371
vn 0.2090 0.5343 0.8190
vn 0.1427 0.8305 0.5385
vn 0.5943 0.5443 0.5920
vn 0.3949 0.8300 0.3940
vn 0.8099 0.5466 0.2128
vn 0.5378 0.8314 0.1398
vn 0.8027 0.5554 -0.2171
vn 0.5319 0.8345 -0.1440
vn 0.3726 0.5812 0.7234
vn 0.1843 0.5846 -0.7901
vn 0.0237 0.5750 -0.8178
vn -0.8234 0.5667 0.0282
vn -0.7733 0.5704 0.2769
vn 0.0262 0.5369 0.8432
vn -0.0580 0.5356 0.8425
vn 0.3827 0.5740 -0.7239
vn 0.8105 0.5853 -0.0237
vn 0.8113 0.5844 -0.0149
vn -0.6904 0.5922 -0.4155
vn 0.6907 0.5642 0.4523
vn 0.6241 0.5667 0.5379
vn -0.4113 0.6101 -0.6772
vn -0.4249 0.5842 -0.6915
vn 0.7000 0.5827 -0.4129
vn 0.7218 0.5824 -0.3739
vn -0.7324 0.5627 0.3833
vn -0.7512 0.5750 0.3242
vn -0.3765 0.5486 0.7465
vn -0.2720 0.5508 0.7891
vn 0.0643 0.5363 0.8416
vn -0.4421 0.5434 0.7137
vn 0.6847 0.5823 -0.4384
vn -0.3848 0.6072 -0.6952
vn -0.3734 0.5789 -0.7249
vn 0.8091 0.5865 -0.0360
vn 0.7733 0.5652 0.2872
vn -0.5977 -0.5370 -0.5954
vn -0.3730 -0.5796 -0.7245
vn -0.2431 -0.5392 -0.8063
vn 0.2017 -0.5612 0.8027
vn -0.0233 -0.5740 0.8185
vn -0.1844 -0.5835 0.7909
vn -0.2123 -0.5485 0.8087
vn 0.8143 -0.5350 -0.2250
vn 0.7736 -0.5698 -0.2774
vn 0.8238 -0.5663 -0.0270
vn 0.8080 -0.5526 0.2045
vn -0.0242 -0.5353 -0.8443
vn 0.0553 -0.5338 -0.8438
vn -0.0278 -0.5352 -0.8442
vn -0.3838 -0.5728 0.7243
vn -0.5928 -0.5539 0.5846
vn -0.8079 -0.5475 0.2178
vn -0.8137 -0.5812 0.0132
vn -0.8122 -0.5828 0.0236
vn -0.8175 -0.5457 -0.1841
vn 0.6914 -0.5900 0.4169
vn 0.5957 -0.5709 0.5650
vn -0.7104 -0.5455 -0.4447
vn -0.6281 -0.5635 -0.5366
vn -0.6926 -0.5616 -0.4527
vn 0.4068 -0.6182 0.6725
vn 0.4244 -0.5831 0.6927
vn 0.4122 -0.6077 0.6788
vn -0.7228 -0.5808 0.3746
vn -0.7010 -0.5811 0.4134
vn 0.7326 -0.5613 -0.3850
vn 0.7520 -0.5729 -0.3262
vn 0.7329 -0.5616 -0.3840
vn 0.3776 -0.5468 -0.7473
vn 0.2766 -0.5480 -0.7895
vn 0.5811 -0.5337 -0.6144
vn -0.0660 -0.5347 -0.8425
vn 0.2041 -0.5212 -0.8287
vn 0.4429 -0.5423 -0.7140
vn -0.6860 -0.5807 0.4383
vn 0.3862 -0.6049 0.6964
vn 0.3743 -0.5780 0.7251
vn -0.8101 -0.5851 0.0381
vn -0.6927 -0.5616 -0.4526
vn -0.7730 -0.5621 -0.2941
vn 0.6934 -0.3394 0.6356
vn 0.5457 -0.7761 -0.3160
vn 0.0727 -0.6160 0.7844
vn 0.5667 -0.7606 0.3167
vn -0.2988 -0.7983 0.5230
vn -0.9204 -0.3873 -0.0536
vn -0.4556 -0.8182 0.3507
vn -0.5365 -0.8231 0.1859
vn -0.4537 -0.8178 0.3541
vn -0.5583 -0.6453 -0.5214
vn -0.4190 -0.7976 -0.4339
vn 0.2914 -0.6690 -0.6837
vn -0.2360 -0.7742 -0.5873
vn 0.6913 -0.6756 -0.2564
vn 0.7851 0.0472 -0.6176
vn -0.9403 0.0198 0.3398
vn -0.9959 -0.0433 0.0790
vn 0.1541 0.0678 -0.9857
vn -0.9872 0.0847 -0.1353
vn 0.8227 -0.0551 0.5658
vn -0.1563 0.0218 -0.9875
vn -0.1320 0.0358 0.9906
vn 0.5923 -0.0417 -0.8046
vn -0.8175 0.0636 -0.5724
vn -0.4061 -0.0356 0.9131
vn -0.8075 -0.0563 0.5871
vn 0.9166 -0.0648 -0.3945
vn -0.6255 0.0678 -0.7773
vn 0.3592 0.0663 0.9309
vn 0.4304 0.0502 -0.9013
vn -0.5921 0.0907 0.8007
vn 0.9879 0.0722 -0.1375
vn 0.9997 -0.0246 0.0015
vn 0.9997 -0.0249 0.0020
vn 0.9050 -0.0606 0.4211
vn 0.6046 0.0855 0.7919
vn 0.1545 -0.7487 0.6447
vn 0.3419 -0.7914 0.5068
vn 0.9826 -0.1208 0.1408
vn -0.6443 -0.7253 0.2424
vn -0.2903 -0.7402 0.6065
vn -0.2898 -0.7399 0.6071
vn -0.2181 -0.6832 0.6969
vn -0.8653 -0.4865 0.1206
vn -0.2126 -0.3565 -0.9098
vn -0.9212 -0.1741 0.3479
vn -0.5635 -0.7540 -0.3377
vn 0.8164 -0.0843 -0.5713
vn 0.3536 -0.7897 -0.5013
vn 0.2928 -0.3812 0.8769
vn 0.1079 -0.2013 -0.9736
vn 0.4790 -0.8253 0.2991
vn 0.7641 -0.3164 -0.5621
vn 0.5758 0.5777 -0.5785
vn 0.7853 0.5761 -0.2267
vn 0.7986 0.5747 0.1790
vn 0.5869 0.5724 0.5726
vn -0.2133 0.5736 0.7909
vn -0.5889 0.5748 0.5682
vn -0.7932 0.5777 0.1926
vn 0.2022 0.5732 0.7941
vn -0.7891 0.5785 -0.2065
vn -0.5670 0.5808 -0.5840
vn -0.1965 0.5808 -0.7899
vn 0.2036 0.5802 -0.7886
vt 0.238147 0.110633
vt 0.299219 0.270798
vt 0.281589 0.280532
vt 0.184019 0.140270
vt 0.298505 0.096333
vt 0.318238 0.264873
vt 0.360068 0.098854
vt 0.337705 0.263482
vt 0.431399 0.247996
vt 0.584482 0.319778
vt 0.576554 0.337469
vt 0.412346 0.307783
vt 0.465898 0.196068
vt 0.596536 0.304152
vt 0.511688 0.155253
vt 0.611376 0.290842
vt 0.565640 0.127139
vt 0.628835 0.281105
vt 0.624427 0.112106
vt 0.647609 0.274934
vt 0.686450 0.111645
vt 0.666928 0.272688
vt 0.108230 0.234231
vt 0.254879 0.310288
vt 0.246749 0.328085
vt 0.089623 0.292090
vt 0.140522 0.183172
vt 0.266799 0.294285
vt 0.611886 0.016812
vt 0.696475 0.044198
vt 0.208748 0.034141
vt 0.286284 0.034740
vt 0.370802 0.222656
vt 0.374134 0.117940
vt 0.544075 0.020298
vt 0.602387 0.024440
vt 0.620576 0.063007
vt 0.162661 0.104731
vt 0.111247 0.184793
vt 0.088217 0.140613
vt 0.363907 0.294688
vt 0.374218 0.226518
vt 0.004381 0.234464
vt 0.011998 0.207518
vt 0.035879 0.202041
vt 0.342676 0.063119
vt 0.348946 0.027212
vt 0.363907 0.048167
vt 0.111990 0.089198
vt 0.160166 0.104488
vt 0.392789 0.098823
vt 0.419972 0.085035
vt 0.464175 0.075076
vt 0.480372 0.026739
vt 0.455306 0.075185
vt 0.458090 0.054381
vt 0.522886 0.031877
vt 0.512504 0.024987
vt 0.083859 0.141289
vt 0.075098 0.110396
vt 0.335065 0.060270
vt 0.299186 0.033416
vt 0.325588 0.016812
vt 0.030824 0.198716
vt 0.064548 0.169852
vt 0.021499 0.282715
s 1
usemtl tree
f 12/1/1 23/2/2 24/3/3 1/4/4
f 11/5/5 22/6/6 23/2/2 12/1/1
f 10/7/7 21/8/8 22/6/6 11/5/5
f 9/9/9 20/10/10 21/11/8 10/12/7
f 8/13/11 19/14/12 20/10/10 9/9/9
f 7/15/13 18/16/14 19/14/12 8/13/11
f 6/17/15 17/18/16 18/16/14 7/15/13
f 5/19/17 16/20/18 17/18/16 6/17/15
f 4/21/19 15/22/20 16/20/18 5/19/17
f 3/23/21 14/24/22 15/25/20 4/26/19
f 2/27/23 13/28/24 14/24/22 3/23/21
f 4/21/19 5/19/17 44/29/25 28/30/25
f 11/5/5 12/1/1 36/31/26 35/32/27
f 8/13/11 9/9/9 37/33/28 32/34/29
f 5/19/17 48/35/30 49/36/31 29/37/31
f 12/1/1 1/4/4 25/38/32 36/31/26
f 2/27/23 3/23/21 60/39/33 26/40/34
f 9/9/9 10/12/7 38/41/35 33/42/35
f 3/23/21 61/43/36 62/44/37 27/45/37
f 10/7/7 56/46/38 53/47/39 34/48/39
f 1/4/4 2/27/23 57/49/40 40/50/41
f 7/15/13 51/51/42 52/52/43 31/53/43
f 47/54/44 7/15/13 46/55/45 50/56/45
f 48/35/30 5/19/17 6/17/15 45/57/46
f 7/15/13 47/54/44 30/58/47 6/17/15
f 57/49/40 2/27/23 41/59/48 58/60/48
f 51/51/42 7/15/13 8/13/11 32/34/29
f 56/46/38 10/7/7 11/5/5 55/61/49
f 55/61/49 11/5/5 39/62/50 54/63/50
f 60/39/33 3/23/21 42/64/51 59/65/51
f 61/43/36 4/26/19 43/66/52
f 4/26/19 61/43/36 3/23/21
f 66/21/53 78/30/54 94/29/54 67/19/55
f 73/5/56 85/32/57 86/31/58 74/1/59
f 70/13/60 82/34/61 87/33/62 71/9/63
f 67/19/64 79/37/65 99/36/65 98/35/66
f 74/1/59 86/31/58 75/38/67 63/4/68
f 64/27/69 76/40/70 110/39/71 65/23/72
f 71/9/63 83/42/73 88/41/73 72/12/74
f 65/23/75 77/45/76 112/44/76 111/43/77
f 72/7/78 84/48/79 103/47/79 106/46/80
f 63/4/68 90/50/81 107/49/82 64/27/69
f 69/15/83 81/53/84 102/52/84 101/51/85
f 97/54/86 100/56/87 96/55/87 69/15/88
f 98/35/66 95/57/89 68/17/90 67/19/55
f 69/15/88 68/17/90 80/58/91 97/54/86
f 107/49/82 108/60/92 91/59/92 64/27/69
f 101/51/85 82/34/61 70/13/60 69/15/88
f 106/46/80 105/61/93 73/5/56 72/7/74
f 105/61/93 104/63/94 89/62/94 73/5/56
f 110/39/71 109/65/95 92/64/95 65/23/72
f 111/43/96 93/66/97 66/26/53
f 66/26/53 65/23/72 111/43/96
f 58/60/98 41/59/98 91/59/98 108/60/98
f 59/65/99 42/64/99 92/64/99 109/65/99
f 61/43/100 43/66/100 93/66/100 111/43/100
f 28/30/101 44/29/101 94/29/101 78/30/101
f 48/35/102 45/57/102 95/57/102 98/35/102
f 50/56/103 46/55/103 96/55/103 100/56/103
f 51/51/104 32/34/105 82/34/105 101/51/106
f 32/34/107 37/33/107 87/33/107 82/34/107
f 33/42/108 38/41/108 88/41/108 83/42/108
f 54/63/109 39/62/109 89/62/109 104/63/109
f 35/32/110 36/31/110 86/31/110 85/32/110
f 36/31/111 25/38/111 75/38/111 86/31/111
f 4/21/112 28/30/112 78/30/112 66/21/112
f 44/29/113 5/19/113 67/19/113 94/29/113
f 11/5/114 35/32/114 85/32/114 73/5/114
f 37/33/115 9/9/115 71/9/115 87/33/115
f 45/57/116 6/17/116 68/17/116 95/57/116
f 25/38/117 1/4/117 63/4/117 75/38/117
f 2/27/118 26/40/118 76/40/118 64/27/118
f 42/64/119 3/23/119 65/23/119 92/64/119
f 38/41/120 10/12/120 72/12/120 88/41/120
f 46/55/121 7/15/121 69/15/121 96/55/121
f 9/9/122 33/42/122 83/42/122 71/9/122
f 10/7/123 34/48/123 84/48/123 72/7/123
f 39/62/124 11/5/124 73/5/124 89/62/124
f 1/4/125 40/50/125 90/50/125 63/4/125
f 41/59/126 2/27/126 64/27/126 91/59/126
f 3/23/127 27/45/127 77/45/127 65/23/127
f 43/66/128 4/26/128 66/26/128 93/66/128
f 5/19/129 29/37/130 79/37/131 67/19/129
f 6/17/132 30/58/132 80/58/132 68/17/132
f 7/15/133 31/53/133 81/53/133 69/15/133
f 30/58/134 47/54/134 97/54/134 80/58/134
f 49/36/135 48/35/135 98/35/135 99/36/135
f 29/37/130 49/36/136 99/36/136 79/37/131
f 47/54/137 50/56/137 100/56/137 97/54/137
f 52/52/138 51/51/104 101/51/106 102/52/139
f 31/53/140 52/52/138 102/52/139 81/53/140
f 34/48/141 53/47/141 103/47/141 84/48/141
f 40/50/142 57/49/142 107/49/142 90/50/142
f 55/61/143 54/63/143 104/63/143 105/61/143
f 56/46/144 55/61/144 105/61/144 106/46/144
f 53/47/145 56/46/145 106/46/145 103/47/145
f 57/49/146 58/60/146 108/60/146 107/49/146
f 26/40/147 60/39/147 110/39/147 76/40/147
f 60/39/148 59/65/148 109/65/148 110/39/148
f 62/44/149 61/43/149 111/43/149 112/44/149
f 27/45/150 62/44/150 112/44/150 77/45/150
f 1/4/4 24/3/3 13/28/24 2/27/23
f 19/14/12 18/16/14 118/16/151 119/14/152
f 20/10/10 19/14/12 119/14/152 120/10/153
f 21/11/8 20/10/10 120/10/153 121/11/154
f 24/3/3 23/2/2 123/2/155 124/3/156
f 13/28/24 24/3/3 124/3/156 113/28/157
f 22/6/6 21/8/8 121/8/154 122/6/158
f 14/24/22 13/28/24 113/28/157 114/24/159
f 23/2/2 22/6/6 122/6/158 123/2/155
f 15/25/20 14/24/22 114/24/159 115/25/160
f 16/20/18 15/22/20 115/22/160 116/20/161
f 17/18/16 16/20/18 116/20/161 117/18/162
f 18/16/14 17/18/16 117/18/162 118/16/151
f 115/25/160 114/24/159 65/23/72 66/26/53
f 114/24/159 113/28/157 64/27/69 65/23/72
f 113/28/157 124/3/156 63/4/68 64/27/69
f 124/3/156 123/2/155 74/1/59 63/4/68
f 123/2/155 122/6/158 73/5/56 74/1/59
f 122/6/158 121/8/154 72/7/74 73/5/56
f 121/11/154 120/10/153 71/9/63 72/12/74
f 120/10/153 119/14/152 70/13/60 71/9/63
f 119/14/152 118/16/151 69/15/88 70/13/60
f 118/16/151 117/18/162 68/17/90 69/15/88
f 117/18/162 116/20/161 67/19/55 68/17/90
f 116/20/161 115/22/160 66/21/53 67/19/55
o Cylinder.002
v -0.552153 2.914069 -0.514243
v -0.219527 2.913699 -0.696710
v 0.144216 2.991167 -0.653643
v 0.352178 3.226024 -0.372480
v 0.670131 2.913548 -0.183289
v 0.837157 2.686270 0.239978
v 0.499571 2.854717 0.561447
v -0.196378 3.052689 0.627353
v -0.549442 2.914490 0.520805
v -0.738210 2.914236 0.193338
v -0.029538 3.836124 -0.100908
v 0.020833 3.835996 -0.101163
v 0.064704 3.836000 -0.076066
v 0.089891 3.836383 -0.032209
v 0.089829 3.836455 0.018275
v 0.064559 3.836170 0.061997
v -0.029537 3.835692 0.086935
v -0.072979 3.835368 0.061615
v -0.098025 3.835330 0.018116
v -0.073175 3.835405 -0.075741
v -0.722231 2.649342 -0.586524
v -0.258142 2.555187 -0.954181
v 0.253574 2.601861 -0.908033
v 0.680705 2.653566 -0.552955
v 0.921740 2.576117 -0.235896
v 0.879534 2.558960 0.344452
v 0.576629 2.566244 0.766447
v -0.335395 2.627296 0.898395
v -0.744399 2.626506 0.621912
v -0.949361 2.617371 0.179445
v -0.284074 2.553958 0.979751
v -0.679403 2.554166 0.756873
v -0.927010 2.614177 0.323034
v -0.670134 2.684041 -0.640465
v -0.276841 2.676559 -0.867702
v 0.182905 2.624117 -0.913936
v 0.650446 2.588336 -0.689458
v 0.940857 2.524731 -0.276064
v 0.936613 2.552850 0.259322
v 0.682442 2.578681 0.675940
v 0.863559 2.446767 0.514399
v 1.003462 2.431441 0.112588
v 1.002641 2.431345 -0.040492
v 0.750882 2.506622 0.644297
v 0.364869 2.487618 0.942942
v 0.490309 2.517386 0.851868
v -0.819784 2.554225 0.589365
v -0.908996 2.553882 0.436369
v -0.720715 2.787860 0.430961
v -0.693006 2.792689 0.464106
v -0.544510 2.555279 -0.816114
v -0.402660 2.528620 -0.919664
v 0.000055 2.556713 -0.952721
v -0.117996 2.848221 -0.736067
v 0.516792 2.465624 -0.849376
v 0.376898 2.509304 -0.902755
v -0.529163 2.891183 -0.490840
v -0.211582 2.891224 -0.664589
v 0.136460 2.968893 -0.621337
v 0.328525 3.204461 -0.348489
v 0.637944 2.891288 -0.175016
v 0.805123 2.663490 0.232569
v 0.476717 2.832039 0.537712
v -0.188201 3.030335 0.595206
v -0.526238 2.891219 0.498001
v -0.706533 2.891201 0.185219
v -0.693525 2.626468 -0.570625
v -0.259592 2.533448 -0.920635
v 0.235650 2.579084 -0.880465
v 0.651295 2.631034 -0.537876
v 0.889056 2.553133 -0.237768
v 0.851711 2.536132 0.326995
v 0.561823 2.542310 0.738022
v -0.318432 2.603798 0.870825
v -0.716574 2.602666 0.605867
v -0.916728 2.594242 0.179853
v -0.285395 2.530560 0.947335
v -0.662441 2.530668 0.729303
v -0.898853 2.590419 0.307453
v -0.654552 2.660583 -0.612057
v -0.260724 2.652853 -0.839804
v 0.185017 2.601070 -0.881311
v 0.635013 2.566432 -0.659759
v 0.911448 2.502198 -0.260985
v 0.903467 2.530523 0.261034
v 0.653259 2.554700 0.662778
v 0.835165 2.423456 0.498576
v 0.970498 2.408785 0.112630
v 0.969958 2.408360 -0.042364
v 0.721699 2.482641 0.631135
v 0.349331 2.463890 0.914736
v 0.475504 2.493452 0.823443
v -0.791959 2.530385 0.573320
v -0.880840 2.530125 0.420787
v -0.693203 2.763456 0.415228
v -0.665617 2.768289 0.448154
v -0.528662 2.531698 -0.787957
v -0.386543 2.504914 -0.891766
v 0.002167 2.533667 -0.920096
v -0.117947 2.825906 -0.702870
v 0.500307 2.443332 -0.820544
v 0.358974 2.486527 -0.875187
v -0.024954 3.836091 -0.088522
v 0.018245 3.835982 -0.088741
v 0.055870 3.835984 -0.067217
v 0.077470 3.836313 -0.029604
v 0.077417 3.836375 0.013692
v 0.055745 3.836131 0.051188
v -0.024953 3.835721 0.072576
v -0.062210 3.835443 0.050861
v -0.083689 3.835410 0.013556
v -0.062378 3.835474 -0.066938
vn -0.3947 0.5734 -0.7179
vn -0.4366 0.8387 -0.3255
vn -0.1356 0.8524 -0.5050
vn -0.2000 0.5742 -0.7939
vn 0.7981 -0.5643 0.2114
vn 0.6362 -0.5846 0.5034
vn 0.8006 -0.5909 -0.0991
vn -0.5722 0.6009 0.5581
vn -0.3702 0.8575 0.3572
vn -0.5375 0.8412 0.0586
vn -0.7003 0.5915 0.3997
vn -0.4286 0.5787 0.6938
vn -0.0632 0.8420 0.5358
vn -0.2371 -0.6062 -0.7592
vn -0.1773 -0.6058 -0.7756
vn 0.1169 -0.5893 -0.7994
vn -0.5190 -0.5747 -0.6328
vn 0.6993 0.5627 0.4408
vn 0.5034 0.8536 0.1337
vn 0.3206 0.8338 0.4494
vn 0.7080 0.5610 0.4290
vn 0.8002 0.5642 -0.2032
vn 0.5139 0.8465 -0.1392
vn 0.8312 0.5545 -0.0406
vn 0.5830 0.5629 -0.5859
vn 0.3737 0.8509 -0.3691
vn 0.3953 0.5510 -0.7350
vn 0.1252 0.8496 -0.5124
vn -0.0232 0.5573 -0.8300
vn 0.7345 0.5648 -0.3762
vn -0.8054 0.5532 -0.2128
vn -0.8057 0.5528 -0.2128
vn 0.2272 0.5797 0.7825
vn 0.2023 0.5648 0.8000
vn 0.8227 0.5685 -0.0000
vn 0.8156 0.5766 0.0481
vn -0.0043 0.5614 -0.8276
vn 0.0298 0.5485 -0.8356
vn -0.4235 0.5891 0.6882
vn 0.4114 0.5588 -0.7200
vn 0.4490 0.5718 -0.6867
vn -0.6822 0.6131 0.3985
vn -0.6936 0.5971 0.4030
vn -0.3958 0.5914 -0.7026
vn -0.3884 0.5884 -0.7092
vn 0.2362 0.6091 0.7571
vn 0.3683 0.6008 0.7095
vn 0.7085 0.5859 0.3934
vn 0.7286 0.6032 0.3243
vn 0.8272 0.5605 -0.0413
vn 0.6945 0.5738 0.4340
vn -0.4034 0.5946 -0.6955
vn -0.6862 0.6132 0.3912
vn -0.7039 0.5951 0.3878
vn -0.0512 0.5778 -0.8146
vn 0.3844 0.5488 -0.7424
vn -0.5925 -0.5394 0.5983
vn -0.7352 -0.5633 0.3770
vn -0.7856 -0.5672 0.2472
vn -0.5537 -0.8087 -0.1987
vn -0.0475 -0.7822 0.6212
vn -0.8232 -0.5677 -0.0059
vn -0.8171 -0.5746 -0.0468
vn -0.8241 -0.5664 0.0010
vn 0.1991 -0.5634 0.8018
vn -0.0362 -0.5435 0.8386
vn 0.0012 -0.5579 0.8299
vn -0.1711 -0.5588 0.8114
vn 0.4241 -0.5875 -0.6893
vn 0.5558 -0.5947 -0.5809
vn -0.3956 -0.5518 0.7342
vn -0.4481 -0.5694 0.6892
vn -0.4121 -0.5573 0.7208
vn 0.6825 -0.6128 -0.3983
vn 0.6956 -0.5960 -0.4011
vn 0.6847 -0.6100 -0.3988
vn 0.3896 -0.5864 0.7102
vn 0.3962 -0.5895 0.7039
vn -0.2277 -0.6063 -0.7619
vn -0.3701 -0.5984 -0.7106
vn -0.2372 -0.6062 -0.7591
vn -0.7099 -0.5828 -0.3956
vn -0.7296 -0.5995 -0.3290
vn -0.8286 -0.5582 0.0428
vn -0.8006 -0.5697 -0.1859
vn -0.6956 -0.5707 -0.4364
vn 0.4029 -0.5926 0.6974
vn 0.6878 -0.6101 -0.3933
vn 0.7039 -0.5939 -0.3895
vn 0.0528 -0.5762 0.8156
vn -0.3858 -0.5476 0.7425
vn 0.6664 -0.3324 -0.6674
vn 0.3892 -0.7403 -0.5482
vn 0.7362 -0.6688 -0.1035
vn 0.2679 -0.7524 -0.6018
vn 0.4234 -0.5956 0.6827
vn -0.0455 -0.4375 0.8980
vn -0.7936 0.5710 -0.2102
vn -0.0864 -0.7838 0.6149
vn -0.7008 -0.6699 -0.2450
vn -0.5628 -0.0536 -0.8249
vn 0.3403 0.0221 0.9400
vn 0.0637 -0.0775 0.9950
vn -0.9851 0.0724 -0.1559
vn -0.1380 0.0747 0.9876
vn 0.5425 -0.1032 -0.8337
vn -0.9921 0.0335 0.1207
vn 0.9929 0.0380 0.1128
vn -0.8124 -0.0749 -0.5782
vn -0.5698 -0.0143 0.8217
vn 0.9134 -0.0281 0.4061
vn 0.5595 -0.0747 0.8255
vn -0.4334 -0.1006 -0.8956
vn -0.7708 0.0669 0.6336
vn 0.9379 0.0409 -0.3445
vn -0.9215 0.0093 -0.3883
vn 0.7812 0.0645 0.6209
vn -0.1416 0.0633 -0.9879
vn 0.5806 -0.3654 -0.7276
vn 0.6643 -0.5071 -0.5491
vn 0.6641 -0.5067 -0.5498
vn 0.8522 -0.1182 -0.5096
vn 0.7086 -0.6184 -0.3397
vn 0.5709 -0.8210 -0.0011
vn 0.4648 -0.6085 -0.6432
vn 0.3060 -0.7398 0.5992
vn 0.5702 -0.7514 0.3320
vn 0.4762 -0.7817 0.4027
vn 0.5701 -0.7515 0.3320
vn 0.6557 -0.7101 0.2564
vn 0.0878 -0.4837 0.8708
vn -0.7728 -0.6279 -0.0927
vn -0.6301 -0.7317 -0.2599
vn -0.6298 -0.7319 -0.2601
vn 0.3161 -0.2327 0.9198
vn -0.4218 -0.7774 0.4667
vn -0.5744 -0.1204 -0.8097
vn -0.4499 -0.7924 -0.4119
vn 0.9323 -0.3106 -0.1855
vn -0.9497 -0.2716 -0.1560
vn -0.2030 -0.6919 -0.6928
vn -0.0012 -0.7808 -0.6247
vn -0.2030 -0.6920 -0.6928
vn -0.3940 -0.5662 -0.7240
vn 0.1787 0.6091 0.7727
vn 0.5973 0.5393 -0.5936
vn 0.8030 0.5894 -0.0885
vn -0.2105 0.5564 0.8038
vn -0.5929 0.5594 0.5792
vn 0.0834 0.5928 -0.8011
vn -0.8028 0.5594 -0.2064
vn -0.4694 0.5925 -0.6547
vn 0.6349 0.5948 0.4931
vn -0.7992 0.5548 0.2314
vn 0.2023 0.5518 0.8090
vt 0.169519 0.510673
vt 0.256051 0.638592
vt 0.240939 0.651965
vt 0.127922 0.549546
vt 0.263969 0.415893
vt 0.147277 0.464990
vt 0.276544 0.472072
vt 0.333631 0.474819
vt 0.312525 0.622635
vt 0.293030 0.623691
vt 0.436958 0.600095
vt 0.561392 0.613880
vt 0.559956 0.633291
vt 0.411643 0.655265
vt 0.354557 0.494428
vt 0.339478 0.595281
vt 0.439686 0.487536
vt 0.458952 0.414785
vt 0.590124 0.562454
vt 0.576947 0.577494
vt 0.536985 0.417048
vt 0.605822 0.550393
vt 0.601865 0.455439
vt 0.623394 0.541902
vt 0.109646 0.602674
vt 0.228734 0.667733
vt 0.220282 0.685362
vt 0.134811 0.661754
vt 0.502665 0.348120
vt 0.566446 0.352258
vt 0.448733 0.364417
vt 0.469142 0.351048
vt 0.509172 0.356059
vt 0.109983 0.555282
vt 0.074673 0.505318
vt 0.339520 0.656609
vt 0.352872 0.597254
vt 0.004381 0.602209
vt 0.019316 0.582445
vt 0.041078 0.571730
vt 0.316999 0.449300
vt 0.326435 0.403235
vt 0.336179 0.417551
vt 0.105418 0.475020
vt 0.144933 0.472422
vt 0.370923 0.475565
vt 0.387804 0.463720
vt 0.402627 0.410339
vt 0.396109 0.453533
vt 0.392639 0.437515
vt 0.440946 0.395458
vt 0.434646 0.405647
vt 0.091310 0.519811
vt 0.081593 0.489724
vt 0.310356 0.447659
vt 0.280946 0.412497
vt 0.298443 0.401772
vt 0.046508 0.570512
vt 0.052012 0.539925
vt 0.015423 0.638818
s 1
usemtl tree
f 125/67/163 144/68/164 135/69/165 126/70/166
f 200/71/167 191/72/167 181/67/168 190/73/169
f 133/74/170 142/75/171 143/76/172 134/73/173
f 132/77/174 141/78/175 142/79/171 133/80/170
f 215/81/176 201/82/177 188/77/178 187/83/179
f 130/84/180 139/85/181 140/86/182 131/83/183
f 129/87/184 138/88/185 139/85/181 130/84/186
f 128/89/187 137/90/188 138/88/185 129/87/184
f 127/91/189 136/92/190 137/93/188 128/94/187
f 126/70/166 135/69/165 136/92/190 127/91/191
f 128/89/187 129/87/184 162/95/192 148/96/192
f 134/73/193 143/76/172 144/68/164 125/67/194
f 131/83/195 140/86/182 141/78/175 132/77/196
f 129/87/184 166/97/197 167/98/198 149/99/198
f 126/70/166 127/91/191 178/100/199 146/101/200
f 132/77/174 133/80/170 156/102/201 152/103/201
f 127/91/189 179/104/202 180/105/203 147/106/203
f 133/74/170 174/107/204 171/108/205 153/109/205
f 125/67/163 126/70/166 175/110/206 158/111/207
f 131/83/195 169/81/208 170/112/209 151/113/209
f 165/114/210 131/83/183 164/115/211 168/116/211
f 166/97/197 129/87/184 130/84/186 163/117/212
f 131/83/183 165/114/210 150/118/213 130/84/180
f 175/110/206 126/70/166 159/119/214 176/120/214
f 174/107/204 133/74/170 134/73/173 173/121/215
f 173/121/215 134/73/173 157/122/216 172/123/216
f 178/100/199 127/91/191 160/124/217 177/125/217
f 179/104/202 128/94/187 161/126/218
f 128/94/187 179/104/202 127/91/189
f 184/89/219 194/96/220 208/95/220 185/87/221
f 154/71/222 145/72/222 191/72/222 200/71/222
f 169/81/223 155/82/223 201/82/223 215/81/223
f 185/87/224 195/99/225 213/98/225 212/97/226
f 182/70/227 192/101/228 224/100/229 183/91/230
f 188/77/178 198/103/231 202/102/231 189/80/232
f 183/91/233 193/106/234 226/105/234 225/104/235
f 189/74/236 199/109/237 217/108/237 220/107/238
f 181/67/168 204/111/239 221/110/240 182/70/227
f 187/83/241 197/113/242 216/112/242 215/81/243
f 211/114/244 214/116/245 210/115/245 187/83/179
f 212/97/226 209/117/246 186/84/247 185/87/221
f 187/83/179 186/84/247 196/118/248 211/114/244
f 221/110/240 222/120/249 205/119/249 182/70/227
f 220/107/238 219/121/250 190/73/169 189/74/232
f 219/121/250 218/123/251 203/122/251 190/73/169
f 224/100/229 223/125/252 206/124/252 183/91/230
f 225/104/235 207/126/253 184/94/219
f 184/94/219 183/91/230 225/104/235
f 176/120/254 159/119/254 205/119/254 222/120/254
f 177/125/255 160/124/255 206/124/255 223/125/255
f 179/104/256 161/126/256 207/126/256 225/104/256
f 148/96/257 162/95/257 208/95/257 194/96/257
f 166/97/258 163/117/258 209/117/258 212/97/258
f 168/116/259 164/115/259 210/115/259 214/116/259
f 134/73/193 125/67/194 145/72/260 154/71/260
f 152/103/261 156/102/261 202/102/261 198/103/261
f 172/123/262 157/122/262 203/122/262 218/123/262
f 128/89/263 148/96/263 194/96/263 184/89/263
f 162/95/264 129/87/264 185/87/264 208/95/264
f 134/73/265 154/71/265 200/71/265 190/73/265
f 155/82/266 132/77/266 188/77/266 201/82/266
f 163/117/267 130/84/267 186/84/267 209/117/267
f 145/72/268 125/67/268 181/67/268 191/72/268
f 126/70/269 146/101/269 192/101/269 182/70/269
f 160/124/270 127/91/270 183/91/270 206/124/270
f 156/102/271 133/80/271 189/80/271 202/102/271
f 164/115/272 131/83/272 187/83/272 210/115/272
f 132/77/273 152/103/273 198/103/273 188/77/273
f 133/74/274 153/109/274 199/109/274 189/74/274
f 157/122/275 134/73/275 190/73/275 203/122/275
f 125/67/276 158/111/276 204/111/276 181/67/276
f 159/119/277 126/70/277 182/70/277 205/119/277
f 127/91/278 147/106/278 193/106/278 183/91/278
f 161/126/279 128/94/279 184/94/279 207/126/279
f 129/87/280 149/99/280 195/99/280 185/87/280
f 130/84/281 150/118/282 196/118/283 186/84/281
f 131/83/284 151/113/284 197/113/284 187/83/284
f 150/118/282 165/114/285 211/114/285 196/118/283
f 167/98/286 166/97/286 212/97/286 213/98/286
f 149/99/287 167/98/287 213/98/287 195/99/287
f 165/114/288 168/116/288 214/116/288 211/114/288
f 170/112/289 169/81/290 215/81/290 216/112/291
f 151/113/292 170/112/289 216/112/291 197/113/292
f 153/109/293 171/108/293 217/108/293 199/109/293
f 158/111/294 175/110/295 221/110/296 204/111/294
f 173/121/297 172/123/297 218/123/297 219/121/297
f 174/107/298 173/121/298 219/121/298 220/107/298
f 171/108/299 174/107/299 220/107/299 217/108/299
f 175/110/295 176/120/300 222/120/300 221/110/296
f 146/101/301 178/100/301 224/100/301 192/101/301
f 178/100/302 177/125/302 223/125/302 224/100/302
f 180/105/303 179/104/304 225/104/304 226/105/305
f 147/106/306 180/105/303 226/105/305 193/106/306
f 169/81/208 131/83/195 132/77/196 155/82/307
f 143/76/172 142/75/171 234/75/308 235/76/309
f 137/93/188 136/92/190 228/92/310 229/93/311
f 142/79/171 141/78/175 233/78/312 234/79/308
f 140/86/182 139/85/181 231/85/313 232/86/314
f 144/68/164 143/76/172 235/76/309 236/68/315
f 138/88/185 137/90/188 229/90/311 230/88/316
f 139/85/181 138/88/185 230/88/316 231/85/313
f 135/69/165 144/68/164 236/68/315 227/69/317
f 136/92/190 135/69/165 227/69/317 228/92/310
f 141/78/175 140/86/182 232/86/314 233/78/312
f 235/76/309 234/75/308 189/74/232 190/73/169
f 234/79/308 233/78/312 188/77/178 189/80/232
f 233/78/312 232/86/314 187/83/179 188/77/178
f 232/86/314 231/85/313 186/84/247 187/83/179
f 231/85/313 230/88/316 185/87/221 186/84/247
f 230/88/316 229/90/311 184/89/219 185/87/221
f 229/93/311 228/92/310 183/91/230 184/94/219
f 228/92/310 227/69/317 182/70/227 183/91/230
f 227/69/317 236/68/315 181/67/168 182/70/227
f 236/68/315 235/76/309 190/73/169 181/67/168
o Cylinder.003
v 0.426382 3.798609 -0.266277
v 0.560743 3.679492 -0.020436
v 0.489218 3.679534 0.258742
v 0.285101 3.679773 0.466199
v -0.003016 3.762258 0.482579
v -0.240532 3.804566 0.389723
v -0.431363 3.775689 0.226167
v -0.552286 3.679965 -0.020666
v -0.416876 3.803440 -0.258624
v -0.252701 3.769242 -0.453969
v -0.007087 3.839751 -0.471482
v 0.061206 4.312692 0.000242
v 0.052091 4.312595 0.034813
v 0.026648 4.312486 0.060374
v -0.008057 4.312531 0.069550
v -0.042511 4.312569 0.060236
v -0.067887 4.312500 0.034856
v -0.076964 4.312699 0.000246
v -0.067804 4.312384 -0.034339
v -0.042440 4.312325 -0.059652
v -0.008011 4.312309 -0.068887
v 0.052012 4.312404 -0.034364
v 0.543454 3.557448 -0.386173
v 0.760827 3.420204 0.003458
v 0.622987 3.454017 0.374345
v 0.283086 3.492746 0.617969
v -0.009352 3.434171 0.736130
v -0.456421 3.381358 0.610333
v -0.649716 3.454284 0.340992
v -0.620091 3.597210 -0.021189
v -0.600831 3.471166 -0.425864
v -0.313156 3.470536 -0.674691
v 0.057829 3.464204 -0.737947
v -0.696997 3.454397 -0.171637
v -0.428334 3.419196 -0.650843
v -0.018449 3.480794 -0.745929
v 0.667496 3.462914 -0.297812
v 0.701869 3.506623 -0.031150
v 0.643747 3.469726 0.320409
v 0.384667 3.444735 0.622012
v 0.160177 3.448759 0.683192
v -0.377334 3.418279 0.648823
v -0.637930 3.435997 0.377539
v -0.555468 3.341511 0.544211
v -0.350431 3.330750 0.711072
v -0.161692 3.246836 0.811834
v -0.629296 3.384128 0.434902
v -0.750688 3.397021 0.100952
v -0.732499 3.391979 0.198924
v -0.274159 3.419092 -0.723478
v -0.144280 3.418558 -0.759299
v -0.109096 3.694259 -0.557156
v -0.147750 3.653461 -0.577147
v 0.716070 3.419924 -0.237755
v 0.763767 3.401395 -0.113569
v 0.708528 3.421595 0.193430
v 0.571026 3.632871 0.063563
v 0.529219 3.356280 0.557380
v 0.595661 3.387554 0.464848
v 0.397691 3.776244 -0.249645
v 0.527996 3.656536 -0.021271
v 0.460682 3.656539 0.242714
v 0.268380 3.656561 0.438242
v -0.002156 3.739528 0.449676
v -0.224491 3.781749 0.361051
v -0.402682 3.752788 0.210262
v -0.519913 3.656471 -0.020789
v -0.388496 3.780582 -0.242128
v -0.236503 3.745544 -0.426112
v -0.006522 3.816888 -0.438665
v 0.521574 3.534111 -0.362160
v 0.729655 3.397012 -0.006051
v 0.601874 3.429742 0.350576
v 0.274701 3.468571 0.587224
v -0.000101 3.411287 0.704654
v -0.433010 3.358020 0.587811
v -0.618494 3.430412 0.333553
v -0.588455 3.572736 -0.021591
v -0.578399 3.447232 -0.402974
v -0.304641 3.446432 -0.643927
v 0.048650 3.440482 -0.707076
v -0.665554 3.430378 -0.165765
v -0.405902 3.395262 -0.627952
v -0.010043 3.456952 -0.714931
v 0.635826 3.439316 -0.291479
v 0.671554 3.481880 -0.022855
v 0.612797 3.445304 0.313653
v 0.360580 3.420762 0.600915
v 0.151791 3.424584 0.652447
v -0.370128 3.395124 0.617012
v -0.616343 3.412418 0.353498
v -0.532787 3.318065 0.521063
v -0.341919 3.307761 0.679465
v -0.152441 3.223951 0.780358
v -0.607708 3.360548 0.410861
v -0.719489 3.372971 0.094009
v -0.701277 3.368107 0.191485
v -0.265644 3.394988 -0.692714
v -0.135874 3.394716 -0.728301
v -0.100275 3.670292 -0.526370
v -0.138978 3.629364 -0.546449
v 0.685040 3.395758 -0.230468
v 0.733452 3.376652 -0.105275
v 0.677577 3.397172 0.186674
v 0.539922 3.609165 0.055163
v 0.506574 3.332267 0.534784
v 0.574547 3.363279 0.441079
v 0.048764 4.312659 0.001187
v 0.041218 4.312579 0.029807
v 0.020156 4.312488 0.050967
v -0.008575 4.312526 0.058563
v -0.037098 4.312557 0.050853
v -0.058105 4.312500 0.029842
v -0.065619 4.312665 0.001191
v -0.058036 4.312404 -0.027440
v -0.037038 4.312356 -0.048395
v -0.008537 4.312342 -0.056041
v 0.041153 4.312420 -0.027461
vn 0.7798 0.6096 -0.1427
vn 0.3980 0.8679 -0.2973
vn 0.4899 0.8715 0.0208
vn 0.7909 0.6114 0.0258
vn -0.4052 -0.5616 0.7214
vn -0.6330 -0.6128 0.4731
vn -0.0879 -0.6107 0.7870
vn -0.3968 0.6226 -0.6745
vn -0.2469 0.8757 -0.4151
vn 0.0643 0.8661 -0.4958
vn -0.2260 0.6178 -0.7531
vn -0.6797 0.6244 -0.3849
vn -0.4282 0.8745 -0.2280
vn -0.7925 0.6099 0.0034
vn -0.5007 0.8656 0.0063
vn -0.6999 0.6087 0.3737
vn -0.4385 0.8667 0.2380
vn -0.3922 0.6012 0.6963
vn -0.2489 0.8661 0.4336
vn -0.0082 0.6004 0.7996
vn 0.0027 0.8647 0.5023
vn 0.4142 0.6112 0.6744
vn 0.2503 0.8656 0.4338
vn 0.6869 0.6162 0.3853
vn 0.4290 0.8688 0.2471
vn 0.2091 0.6071 0.7667
vn 0.3968 0.5822 -0.7096
vn 0.3978 0.5800 -0.7109
vn -0.7844 0.6023 -0.1481
vn -0.7895 0.6136 0.0105
vn -0.2131 0.5761 0.7891
vn -0.2316 0.5733 0.7859
vn 0.7749 0.5974 0.2063
vn 0.7765 0.5864 0.2304
vn -0.5599 0.6000 -0.5714
vn 0.5648 0.6030 0.5635
vn 0.5237 0.6104 0.5942
vn -0.2211 0.6047 -0.7651
vn -0.2153 0.6039 -0.7674
vn 0.7739 0.6065 -0.1826
vn 0.7899 0.5924 -0.1585
vn -0.7787 0.6030 0.1731
vn -0.7794 0.5985 0.1851
vn -0.5657 0.5880 0.5781
vn -0.5369 0.5919 0.6012
vn -0.1807 0.5804 0.7940
vn -0.5843 0.5850 0.5624
vn 0.7552 0.6213 -0.2088
vn -0.2197 0.6018 -0.7678
vn -0.2075 0.5971 -0.7749
vn 0.7716 0.6128 0.1708
vn 0.6026 0.6023 0.5235
vn -0.4174 -0.5972 -0.6849
vn -0.2096 -0.6044 -0.7686
vn -0.0170 -0.5862 -0.8100
vn 0.4560 -0.7866 -0.4164
vn 0.8006 -0.5992 -0.0031
vn 0.7909 -0.6118 -0.0101
vn 0.7861 -0.6005 0.1468
vn 0.6935 -0.6017 0.3962
vn 0.1968 -0.5768 -0.7928
vn 0.2313 -0.5721 -0.7869
vn 0.2128 -0.5747 -0.7902
vn -0.8014 -0.5975 -0.0255
vn -0.7793 -0.5798 -0.2377
vn -0.7776 -0.5927 -0.2100
vn -0.7084 -0.6029 -0.3670
vn 0.5608 -0.5983 0.5723
vn 0.4267 -0.6088 0.6689
vn -0.5613 -0.5959 -0.5744
vn -0.5278 -0.6069 -0.5942
vn -0.5661 -0.6003 -0.5649
vn 0.2237 -0.6023 0.7663
vn 0.2129 -0.6026 0.7691
vn 0.2193 -0.6024 0.7675
vn -0.7918 -0.5900 0.1583
vn -0.7758 -0.6042 0.1822
vn 0.7795 -0.6041 -0.1654
vn 0.7805 -0.5968 -0.1860
vn 0.7800 -0.6013 -0.1736
vn 0.5670 -0.5861 -0.5787
vn 0.5397 -0.5895 -0.6010
vn 0.6977 -0.5921 -0.4033
vn 0.1801 -0.5789 -0.7953
vn 0.4003 -0.5801 -0.7094
vn 0.5853 -0.5835 -0.5630
vn -0.7579 -0.6186 0.2074
vn 0.2205 -0.5992 0.7696
vn 0.2102 -0.5961 0.7750
vn -0.7738 -0.6106 -0.1689
vn -0.6022 -0.5993 -0.5274
vn 0.4943 -0.3369 0.8014
vn 0.4613 -0.7257 0.5104
vn -0.0500 -0.6454 0.7622
vn 0.5019 -0.7412 0.4459
vn -0.9513 -0.3081 -0.0116
vn -0.8352 -0.4645 -0.2943
vn -0.3402 -0.3060 -0.8892
vn -0.4548 -0.5092 0.7306
vn -0.5702 -0.7802 -0.2570
vn 0.3985 -0.6716 -0.6246
vn 0.9488 -0.1909 -0.2517
vn -0.9146 -0.2662 0.3043
vn -0.9857 -0.0412 -0.1634
vn 0.1110 -0.3091 -0.9445
vn -0.9135 0.0663 -0.4015
vn 0.6487 -0.0420 0.7599
vn 0.1373 0.0317 -0.9900
vn -0.3722 0.0211 0.9279
vn 0.7815 -0.0302 -0.6232
vn -0.6051 0.0293 -0.7956
vn -0.6292 -0.0295 0.7767
vn -0.9354 -0.0551 0.3494
vn 0.9935 0.0554 -0.0991
vn -0.2863 -0.1001 -0.9529
vn 0.0891 0.0378 0.9953
vn 0.6274 -0.0033 -0.7787
vn -0.8010 0.0754 0.5938
vn 0.9919 0.0737 0.1035
vn 0.7693 -0.0490 0.6370
vn 0.4053 0.0640 0.9119
vn -0.1276 -0.7543 0.6440
vn -0.5392 -0.7461 0.3907
vn 0.7546 -0.4050 0.5163
vn -0.6437 -0.7514 0.1449
vn -0.5971 -0.7990 0.0707
vn -0.4163 -0.7182 0.5576
vn -0.8525 -0.4991 -0.1551
vn 0.3233 -0.6266 -0.7091
vn 0.4439 -0.7229 -0.5295
vn 0.4416 -0.7214 -0.5335
vn -0.9710 -0.0471 0.2343
vn 0.8130 -0.3238 -0.4839
vn 0.7274 -0.4240 -0.5396
vn 0.8138 -0.3227 -0.4832
vn 0.8826 -0.2159 -0.4176
vn 0.5378 -0.7780 -0.3247
vn -0.0412 -0.3082 0.9504
vn 0.4178 -0.2650 -0.8690
vn 0.7400 -0.6723 0.0194
vn 0.6243 -0.7557 0.1978
vn 0.7400 -0.6724 0.0194
vn 0.8170 -0.5539 -0.1601
vn 0.4026 0.5683 -0.7175
vn -0.7384 0.5290 -0.4183
vn -0.4170 0.5355 -0.7344
vn -0.1095 0.5608 0.8207
vn -0.6597 0.5678 0.4924
vn 0.0095 0.5383 -0.8427
vn -0.8541 0.5191 -0.0330
vn 0.4195 0.5392 -0.7303
vn 0.7374 0.5381 -0.4082
vn 0.8478 0.5301 -0.0123
vn 0.4364 0.5164 0.7368
vn 0.7520 0.5274 0.3954
vt 0.860698 0.444499
vt 0.799707 0.394757
vt 0.809749 0.379631
vt 0.898787 0.422718
vt 0.832301 0.545215
vt 0.894193 0.475146
vt 0.798943 0.481162
vt 0.767573 0.504113
vt 0.756480 0.423922
vt 0.772102 0.417577
vt 0.760325 0.240968
vt 0.835693 0.245988
vt 0.834523 0.263143
vt 0.756268 0.278293
vt 0.744992 0.198930
vt 0.840342 0.229056
vt 0.777914 0.170855
vt 0.847936 0.212803
vt 0.804121 0.146305
vt 0.858640 0.198304
vt 0.827522 0.117061
vt 0.871514 0.186139
vt 0.858933 0.085159
vt 0.885846 0.177229
vt 0.911513 0.383525
vt 0.816874 0.363305
vt 0.820471 0.346553
vt 0.913958 0.342127
vt 0.815700 0.054141
vt 0.838743 0.053046
vt 0.698276 0.208043
vt 0.728800 0.193929
vt 0.743624 0.079860
vt 0.759106 0.047900
vt 0.795654 0.061498
vt 0.910210 0.415117
vt 0.944161 0.443161
vt 0.688509 0.286289
vt 0.695579 0.241985
vt 0.973760 0.360537
vt 0.967431 0.377518
vt 0.954673 0.389459
vt 0.793381 0.521668
vt 0.792768 0.570657
vt 0.782234 0.562964
vt 0.928414 0.470354
vt 0.915688 0.475206
vt 0.698741 0.165379
vt 0.704437 0.150955
vt 0.726074 0.134037
vt 0.725968 0.104886
vt 0.722455 0.136702
vt 0.719431 0.125213
vt 0.748360 0.096303
vt 0.742647 0.095146
vt 0.930362 0.436212
vt 0.942288 0.455139
vt 0.796226 0.512457
vt 0.828752 0.547958
vt 0.813705 0.564997
vt 0.951532 0.391516
vt 0.953299 0.414205
vt 0.959175 0.337005
s 1
usemtl tree
f 237/127/318 258/128/319 248/129/320 238/130/321
f 317/131/322 307/132/322 296/127/323 306/133/324
f 246/134/325 256/135/326 257/136/327 247/133/328
f 245/137/329 255/138/330 256/139/326 246/140/325
f 244/141/331 254/142/332 255/138/330 245/137/329
f 243/143/333 253/144/334 254/142/332 244/141/331
f 242/145/335 252/146/336 253/144/334 243/143/333
f 241/147/337 251/148/338 252/146/336 242/145/335
f 240/149/339 250/150/340 251/148/338 241/147/337
f 239/151/341 249/152/342 250/153/340 240/154/339
f 238/130/321 248/129/320 249/152/342 239/151/341
f 240/149/339 241/147/337 277/155/343 262/156/343
f 247/133/344 257/136/327 258/128/319 237/127/345
f 244/141/331 245/137/329 270/157/346 266/158/347
f 241/147/337 281/159/348 282/160/349 263/161/349
f 238/130/321 239/151/341 293/162/350 260/163/351
f 245/137/329 246/140/325 271/164/352 267/165/352
f 239/151/341 294/166/353 295/167/354 261/168/354
f 246/134/325 289/169/355 286/170/356 268/171/356
f 237/127/318 238/130/321 290/172/357 273/173/358
f 243/143/333 284/174/359 285/175/360 265/176/360
f 280/177/361 243/143/333 279/178/362 283/179/362
f 281/159/348 241/147/337 242/145/335 278/180/363
f 243/143/333 280/177/361 264/181/364 242/145/335
f 290/172/357 238/130/321 274/182/365 291/183/365
f 284/174/359 243/143/333 244/141/331 266/158/347
f 289/169/355 246/134/325 247/133/328 288/184/366
f 288/184/366 247/133/328 272/185/367 287/186/367
f 293/162/350 239/151/341 275/187/368 292/188/368
f 294/166/353 240/154/339 276/189/369
f 240/154/339 294/166/353 239/151/341
f 299/149/370 310/156/371 325/155/371 300/147/372
f 269/131/373 259/132/373 307/132/373 317/131/373
f 303/141/374 314/158/375 318/157/376 304/137/377
f 300/147/378 311/161/379 330/160/379 329/159/380
f 297/130/381 308/163/382 341/162/383 298/151/384
f 304/137/377 315/165/385 319/164/385 305/140/386
f 298/151/387 309/168/388 343/167/388 342/166/389
f 305/134/390 316/171/391 334/170/391 337/169/392
f 296/127/323 321/173/393 338/172/394 297/130/381
f 302/143/395 313/176/396 333/175/396 332/174/397
f 328/177/398 331/179/399 327/178/399 302/143/400
f 329/159/380 326/180/401 301/145/402 300/147/372
f 302/143/400 301/145/402 312/181/403 328/177/398
f 338/172/394 339/183/404 322/182/404 297/130/381
f 332/174/397 314/158/375 303/141/374 302/143/400
f 337/169/392 336/184/405 306/133/324 305/134/386
f 336/184/405 335/186/406 320/185/406 306/133/324
f 341/162/383 340/188/407 323/187/407 298/151/384
f 342/166/389 324/189/408 299/154/370
f 299/154/370 298/151/384 342/166/389
f 291/183/409 274/182/409 322/182/409 339/183/409
f 292/188/410 275/187/410 323/187/410 340/188/410
f 294/166/411 276/189/411 324/189/411 342/166/411
f 262/156/412 277/155/412 325/155/412 310/156/412
f 281/159/413 278/180/413 326/180/413 329/159/413
f 283/179/414 279/178/414 327/178/414 331/179/414
f 284/174/415 266/158/415 314/158/415 332/174/415
f 266/158/416 270/157/416 318/157/416 314/158/416
f 267/165/417 271/164/417 319/164/417 315/165/417
f 287/186/418 272/185/418 320/185/418 335/186/418
f 240/149/419 262/156/419 310/156/419 299/149/419
f 277/155/420 241/147/420 300/147/420 325/155/420
f 247/133/421 269/131/421 317/131/421 306/133/421
f 270/157/422 245/137/422 304/137/422 318/157/422
f 278/180/423 242/145/423 301/145/423 326/180/423
f 259/132/424 237/127/424 296/127/424 307/132/424
f 238/130/425 260/163/425 308/163/425 297/130/425
f 275/187/426 239/151/426 298/151/426 323/187/426
f 271/164/427 246/140/427 305/140/427 319/164/427
f 279/178/428 243/143/428 302/143/428 327/178/428
f 245/137/429 267/165/429 315/165/429 304/137/429
f 246/134/430 268/171/430 316/171/430 305/134/430
f 272/185/431 247/133/431 306/133/431 320/185/431
f 237/127/432 273/173/432 321/173/432 296/127/432
f 274/182/433 238/130/433 297/130/433 322/182/433
f 239/151/434 261/168/434 309/168/434 298/151/434
f 276/189/435 240/154/435 299/154/435 324/189/435
f 241/147/436 263/161/436 311/161/436 300/147/436
f 242/145/437 264/181/437 312/181/437 301/145/437
f 243/143/438 265/176/438 313/176/438 302/143/438
f 264/181/439 280/177/439 328/177/439 312/181/439
f 282/160/440 281/159/440 329/159/440 330/160/440
f 263/161/441 282/160/441 330/160/441 311/161/441
f 280/177/442 283/179/442 331/179/442 328/177/442
f 285/175/443 284/174/443 332/174/443 333/175/443
f 265/176/444 285/175/444 333/175/444 313/176/444
f 268/171/445 286/170/445 334/170/445 316/171/445
f 273/173/446 290/172/447 338/172/448 321/173/446
f 288/184/449 287/186/449 335/186/449 336/184/449
f 289/169/450 288/184/451 336/184/451 337/169/452
f 286/170/453 289/169/450 337/169/452 334/170/453
f 290/172/447 291/183/454 339/183/454 338/172/448
f 260/163/455 293/162/455 341/162/455 308/163/455
f 293/162/456 292/188/456 340/188/456 341/162/456
f 295/167/457 294/166/458 342/166/458 343/167/459
f 261/168/460 295/167/457 343/167/459 309/168/460
f 247/133/344 237/127/345 259/132/461 269/131/461
f 250/153/340 249/152/342 345/152/462 346/153/463
f 258/128/319 257/136/327 353/136/464 354/128/465
f 251/148/338 250/150/340 346/150/463 347/148/466
f 248/129/320 258/128/319 354/128/465 344/129/467
f 252/146/336 251/148/338 347/148/466 348/146/468
f 253/144/334 252/146/336 348/146/468 349/144/469
f 254/142/332 253/144/334 349/144/469 350/142/470
f 257/136/327 256/135/326 352/135/471 353/136/464
f 249/152/342 248/129/320 344/129/467 345/152/462
f 255/138/330 254/142/332 350/142/470 351/138/472
f 256/139/326 255/138/330 351/138/472 352/139/471
f 353/136/464 352/135/471 305/134/386 306/133/324
f 352/139/471 351/138/472 304/137/377 305/140/386
f 351/138/472 350/142/470 303/141/374 304/137/377
f 350/142/470 349/144/469 302/143/400 303/141/374
f 349/144/469 348/146/468 301/145/402 302/143/400
f 348/146/468 347/148/466 300/147/372 301/145/402
f 347/148/466 346/150/463 299/149/370 300/147/372
f 346/153/463 345/152/462 298/151/384 299/154/370
f 345/152/462 344/129/467 297/130/381 298/151/384
f 344/129/467 354/128/465 296/127/323 297/130/381
f 354/128/465 353/136/464 306/133/324 296/127/323
o Cylinder.004
v 0.411987 4.295797 0.224267
v 0.228426 4.324526 0.370368
v 0.012273 4.344409 0.418099
v -0.189351 4.376977 0.342651
v -0.313507 4.411808 0.181453
v -0.442297 4.295020 -0.005940
v -0.383210 4.295450 -0.234713
v -0.213906 4.294704 -0.396092
v 0.012071 4.295759 -0.464316
v 0.241675 4.295792 -0.402861
v 0.409537 4.295643 -0.234763
v 0.467014 4.294876 -0.005968
v 0.034972 4.784345 0.046686
v 0.006061 4.784328 0.054570
v -0.023099 4.784246 0.046838
v -0.044310 4.784190 0.025446
v -0.052025 4.784135 -0.003531
v -0.044276 4.784150 -0.032594
v -0.023001 4.784237 -0.053652
v 0.005940 4.784426 -0.061623
v 0.035053 4.784478 -0.053810
v 0.056305 4.784475 -0.032517
v 0.063937 4.784412 -0.003548
v 0.056354 4.784359 0.025517
v 0.517815 4.148724 0.234876
v 0.300334 4.094755 0.534810
v -0.012463 4.122593 0.582519
v -0.274271 4.166614 0.463416
v -0.515218 4.107226 0.289282
v -0.609446 4.065072 -0.069299
v -0.495582 4.123792 -0.310592
v -0.307239 4.062722 -0.561875
v 0.053162 4.136880 -0.581200
v 0.339134 4.136278 -0.481497
v 0.530255 4.131052 -0.250628
v 0.620917 4.095452 -0.006929
v 0.005310 4.095714 -0.621526
v 0.275514 4.095625 -0.553507
v 0.491942 4.129511 -0.335895
v 0.491636 4.167987 0.278937
v 0.298579 4.164081 0.473267
v 0.034093 4.135278 0.574477
v -0.278950 4.115219 0.516939
v -0.500034 4.084371 0.333371
v -0.601910 4.095201 0.000506
v -0.517533 4.109175 -0.286856
v -0.610848 4.030123 -0.166467
v -0.643389 4.021867 0.046286
v -0.642460 3.952186 0.220696
v -0.556778 4.067098 -0.259712
v -0.376175 4.055839 -0.501118
v -0.435677 4.072701 -0.426979
v 0.389507 4.095212 -0.475689
v 0.466457 4.094789 -0.400572
v 0.356879 4.225038 -0.369756
v 0.336076 4.227789 -0.386196
v 0.449797 4.095386 0.404904
v 0.382560 4.080526 0.488004
v 0.148475 4.094160 0.578525
v 0.184526 4.258127 0.432943
v -0.178740 4.042022 0.600341
v -0.085588 4.068750 0.604838
v 0.384334 4.271758 0.208221
v 0.212624 4.300719 0.342376
v 0.011864 4.320660 0.385915
v -0.173346 4.353544 0.314459
v -0.285140 4.388633 0.165383
v -0.410222 4.271120 -0.005824
v -0.355636 4.271439 -0.218492
v -0.197851 4.270702 -0.368413
v 0.012670 4.271594 -0.432446
v 0.225824 4.271583 -0.375243
v 0.381695 4.271574 -0.219095
v 0.434800 4.271165 -0.005842
v 0.486481 4.125130 0.227034
v 0.292391 4.071094 0.503553
v -0.004249 4.098771 0.551455
v -0.251634 4.143436 0.439956
v -0.483737 4.084046 0.280819
v -0.578690 4.040778 -0.061305
v -0.473503 4.099252 -0.288002
v -0.291182 4.037621 -0.535190
v 0.044883 4.112530 -0.550564
v 0.317015 4.111887 -0.458784
v 0.499096 4.107278 -0.242634
v 0.589044 4.071287 -0.006554
v 0.014007 4.071108 -0.591213
v 0.267235 4.071275 -0.522872
v 0.469145 4.105071 -0.313918
v 0.469216 4.143661 0.256451
v 0.277003 4.139481 0.450261
v 0.025190 4.111012 0.543950
v -0.270266 4.091642 0.485815
v -0.477398 4.061193 0.309911
v -0.570814 4.071052 -0.006555
v -0.486685 4.085016 -0.278809
v -0.580059 4.005877 -0.158454
v -0.612024 3.998373 0.038269
v -0.610979 3.929005 0.212233
v -0.525929 4.042940 -0.251665
v -0.354265 4.031199 -0.478473
v -0.413598 4.048162 -0.404390
v 0.367388 4.070822 -0.452976
v 0.443661 4.070349 -0.378595
v 0.334515 4.200282 -0.347688
v 0.314009 4.203084 -0.363776
v 0.427804 4.070918 0.382151
v 0.360985 4.055926 0.464997
v 0.139572 4.069894 0.547998
v 0.176181 4.234210 0.401986
v -0.170444 4.018315 0.569209
v -0.077374 4.044928 0.573773
v 0.029332 4.784339 0.036916
v 0.006048 4.784326 0.043265
v -0.017437 4.784260 0.037037
v -0.034520 4.784214 0.019809
v -0.040733 4.784170 -0.003528
v -0.034493 4.784183 -0.026936
v -0.017358 4.784253 -0.043895
v 0.005950 4.784404 -0.050315
v 0.029397 4.784446 -0.044022
v 0.046514 4.784444 -0.026873
v 0.052660 4.784393 -0.003542
v 0.046553 4.784350 0.019866
vn 0.7849 0.6196 -0.0029
vn 0.4799 0.8773 -0.0015
vn 0.4159 0.8778 0.2378
vn 0.6746 0.6271 0.3894
vn 0.6768 0.6306 -0.3800
vn 0.4163 0.8784 -0.2347
vn 0.3840 0.6343 -0.6710
vn 0.2385 0.8781 -0.4147
vn -0.0154 0.6318 -0.7750
vn -0.0111 0.8768 -0.4808
vn -0.3904 0.6274 -0.6737
vn -0.2482 0.8730 -0.4199
vn -0.6707 0.6279 -0.3948
vn -0.4212 0.8731 -0.2456
vn -0.7664 0.6108 -0.1989
vn -0.4900 0.8716 -0.0142
vn -0.6849 0.6241 0.3761
vn -0.4218 0.8782 0.2254
vn -0.7748 0.6086 0.1712
vn -0.3825 0.6181 0.6867
vn -0.2350 0.8774 0.4182
vn 0.0136 0.6238 0.7815
vn 0.0100 0.8770 0.4804
vn 0.3881 0.6256 0.6767
vn 0.2420 0.8765 0.4161
vn -0.5654 0.5818 0.5846
vn 0.7956 0.6058 -0.0092
vn 0.7781 0.5961 -0.1981
vn -0.2186 0.6163 -0.7566
vn -0.4009 0.6288 -0.6662
vn -0.7831 0.5889 0.2000
vn -0.7863 0.5808 0.2107
vn 0.7823 0.5918 0.1941
vn 0.2102 0.6019 0.7704
vn 0.2031 0.5971 0.7760
vn 0.2064 0.6120 -0.7635
vn -0.2069 0.5947 0.7769
vn -0.2068 0.5980 0.7744
vn 0.5477 0.6227 -0.5587
vn 0.5491 0.6115 -0.5696
vn 0.5489 0.6141 0.5671
vn 0.5583 0.6111 0.5611
vn -0.5456 0.6181 -0.5659
vn -0.5494 0.6164 -0.5642
vn -0.7680 0.6085 -0.1996
vn -0.7698 0.6068 -0.1982
vn -0.7759 0.6052 0.1778
vn -0.7671 0.6095 -0.2003
vn 0.5394 0.6170 0.5731
vn 0.5570 0.6242 -0.5478
vn 0.5706 0.6129 -0.5466
vn 0.2202 0.6086 0.7623
vn -0.2151 0.5912 0.7773
vn 0.3945 -0.5961 -0.6993
vn 0.5659 -0.5794 -0.5865
vn 0.6845 -0.6025 -0.4105
vn -0.6900 -0.6107 0.3884
vn -0.7790 -0.5944 0.1999
vn -0.7968 -0.6041 0.0094
vn -0.7991 -0.6012 0.0033
vn 0.3977 -0.6091 0.6862
vn 0.4014 -0.6275 0.6671
vn 0.2174 -0.6152 0.7578
vn 0.0147 -0.6131 0.7899
vn 0.7825 -0.5916 -0.1943
vn 0.7870 -0.5795 -0.2116
vn 0.7841 -0.5874 -0.2004
vn -0.7833 -0.5899 -0.1961
vn -0.6864 -0.6089 -0.3976
vn -0.3927 -0.6045 -0.6931
vn -0.1986 -0.5916 -0.7814
vn -0.2086 -0.5979 -0.7739
vn -0.0283 -0.6033 -0.7970
vn -0.2070 -0.6088 0.7659
vn -0.3688 -0.6159 0.6961
vn 0.1984 -0.5930 -0.7804
vn 0.2054 -0.5956 -0.7766
vn 0.2074 -0.5927 -0.7783
vn -0.5515 -0.6187 0.5595
vn -0.5530 -0.6098 0.5678
vn -0.5517 -0.6176 0.5605
vn -0.5605 -0.6081 -0.5622
vn -0.5498 -0.6117 -0.5688
vn 0.5485 -0.6156 0.5659
vn 0.5520 -0.6135 0.5647
vn 0.5478 -0.6160 0.5661
vn 0.7697 -0.6061 0.2003
vn 0.7712 -0.6040 0.2012
vn 0.6983 -0.6073 0.3789
vn 0.7774 -0.6037 -0.1765
vn 0.7964 -0.6047 0.0049
vn 0.7689 -0.6073 0.1999
vn -0.5394 -0.6150 -0.5752
vn 0.5479 -0.6159 0.5661
vn -0.5591 -0.6189 0.5517
vn -0.5699 -0.6110 0.5494
vn -0.2226 -0.6066 -0.7632
vn 0.2171 -0.5894 -0.7781
vn -0.4786 -0.3381 0.8103
vn -0.2783 -0.7107 0.6461
vn -0.7115 -0.6394 0.2916
vn -0.0993 -0.7541 0.6492
vn -0.4275 -0.2894 -0.8565
vn -0.2582 -0.1247 -0.9580
vn -0.2611 -0.1274 -0.9569
vn -0.1246 -0.4532 -0.8827
vn -0.4757 -0.7848 -0.3973
vn -0.2087 -0.7842 -0.5844
vn -0.2071 -0.7841 -0.5850
vn -0.4759 -0.7848 -0.3971
vn -0.0392 -0.7615 -0.6470
vn -0.0647 -0.7726 -0.6316
vn 0.7541 -0.6546 0.0543
vn 0.5460 -0.7739 -0.3210
vn 0.5232 -0.7544 0.3963
vn 0.8118 0.0266 0.5833
vn -0.6139 -0.0023 -0.7894
vn -0.2979 -0.1020 -0.9491
vn 0.9931 0.0640 -0.0982
vn -0.0748 0.0457 -0.9962
vn -0.2934 -0.1127 0.9493
vn 0.9202 0.0271 -0.3905
vn -0.9908 0.0173 0.1339
vn 0.9409 -0.0700 0.3314
vn 0.3860 0.0035 -0.9225
vn -0.9784 -0.0869 -0.1876
vn -0.7434 -0.1036 -0.6608
vn 0.6562 -0.1051 0.7472
vn 0.5806 0.0465 -0.8128
vn -0.8201 0.0314 0.5713
vn 0.9925 -0.0002 0.1226
vn -0.9079 0.0486 -0.4164
vn 0.4170 0.0584 0.9070
vn -0.2042 -0.1024 0.9735
vn -0.5848 0.0492 0.8097
vn -0.6386 -0.7212 0.2684
vn -0.6185 -0.7310 -0.2883
vn -0.0328 -0.3817 0.9237
vn -0.4297 -0.7256 -0.5375
vn -0.6486 -0.7412 -0.1730
vn -0.6484 -0.7413 -0.1733
vn -0.7135 -0.6980 -0.0609
vn -0.3031 -0.4876 -0.8188
vn 0.7799 -0.6181 -0.0990
vn 0.6854 -0.7199 0.1095
vn 0.6883 -0.7178 0.1043
vn -0.5246 -0.2477 -0.8145
vn 0.3221 -0.7765 -0.5416
vn 0.7691 -0.1141 0.6288
vn 0.5519 -0.7756 0.3063
vn -0.8348 -0.3096 0.4553
vn 0.9618 -0.2668 -0.0607
vn 0.3980 -0.6747 0.6217
vn 0.1861 -0.7562 0.6273
vn 0.5893 -0.5583 0.5840
vn -0.4249 0.5185 -0.7421
vn -0.0139 0.5232 -0.8521
vn -0.7439 0.5184 0.4218
vn -0.8572 0.5150 0.0072
vn 0.4229 0.5247 -0.7388
vn 0.7427 0.5265 -0.4137
vn 0.8505 0.5259 0.0056
vn 0.7309 0.5296 0.4305
vn 0.4259 0.5216 0.7393
vn 0.0116 0.5237 0.8518
vn -0.4283 0.5175 0.7408
vn -0.7396 0.5223 -0.4245
vt 0.637196 0.796966
vt 0.565830 0.774287
vt 0.568541 0.759313
vt 0.643307 0.763751
vt 0.622612 0.827593
vt 0.560183 0.788170
vt 0.600253 0.852856
vt 0.552060 0.800113
vt 0.852425 0.643609
vt 0.788808 0.605047
vt 0.795829 0.592366
vt 0.866218 0.611546
vt 0.830392 0.670127
vt 0.778846 0.616098
vt 0.802948 0.689682
vt 0.766696 0.624953
vt 0.771927 0.701430
vt 0.752931 0.630985
vt 0.739817 0.683802
vt 0.738518 0.633994
vt 0.710519 0.687381
vt 0.724176 0.633747
vt 0.621178 0.703941
vt 0.564321 0.729688
vt 0.558051 0.716839
vt 0.599931 0.682788
vt 0.634428 0.731797
vt 0.567882 0.744114
vt 0.738021 0.747020
vt 0.700930 0.726212
vt 0.674149 0.808921
vt 0.650989 0.840259
vt 0.887025 0.662596
vt 0.862758 0.704079
vt 0.779199 0.752613
vt 0.755332 0.767819
vt 0.737240 0.741389
vt 0.670120 0.769387
vt 0.643504 0.720595
vt 0.677014 0.722484
vt 0.902974 0.627058
vt 0.881618 0.656081
vt 0.656990 0.656713
vt 0.660480 0.670723
vt 0.657552 0.684345
vt 0.617398 0.853653
vt 0.633858 0.873420
vt 0.623906 0.872715
vt 0.680026 0.746386
vt 0.667547 0.765450
vt 0.852562 0.712337
vt 0.838804 0.717942
vt 0.817292 0.720384
vt 0.804655 0.742961
vt 0.819100 0.721422
vt 0.816802 0.730755
vt 0.782600 0.738696
vt 0.789097 0.741857
vt 0.664358 0.724369
vt 0.681390 0.730227
vt 0.620496 0.851110
vt 0.646184 0.849537
vt 0.644805 0.861338
vt 0.656648 0.687043
vt 0.669554 0.699843
vt 0.635862 0.649742
s 1
usemtl tree
f 366/190/473 377/191/474 378/192/475 355/193/476
f 365/194/477 376/195/478 377/191/474 366/190/473
f 364/196/479 375/197/480 376/195/478 365/194/477
f 363/198/481 374/199/482 375/200/480 364/201/479
f 362/202/483 373/203/484 374/199/482 363/198/481
f 361/204/485 372/205/486 373/203/484 362/202/483
f 360/206/487 371/207/488 372/205/486 361/204/485
f 359/208/489 370/209/490 371/207/488 360/206/491
f 358/210/492 369/211/493 370/209/490 359/208/489
f 357/212/494 368/213/495 369/214/493 358/215/492
f 356/216/496 367/217/497 368/213/495 357/212/494
f 358/210/492 359/208/489 398/218/498 382/219/498
f 365/194/477 366/190/473 390/220/499 389/221/500
f 362/202/483 363/198/481 391/222/501 386/223/502
f 359/208/489 402/224/503 403/225/504 383/226/504
f 366/190/473 355/193/476 379/227/505 390/220/499
f 356/216/496 357/212/494 414/228/506 380/229/507
f 363/198/481 364/201/479 392/230/508 387/231/508
f 357/212/494 415/232/509 416/233/510 381/234/510
f 364/196/479 410/235/511 407/236/512 388/237/512
f 355/193/476 356/216/496 411/238/513 394/239/514
f 361/204/485 405/240/515 406/241/516 385/242/516
f 401/243/517 361/204/485 400/244/518 404/245/518
f 402/224/503 359/208/489 360/206/491 399/246/519
f 361/204/485 401/243/517 384/247/520 360/206/487
f 411/238/513 356/216/496 395/248/521 412/249/521
f 405/240/515 361/204/485 362/202/483 386/223/502
f 410/235/511 364/196/479 365/194/477 409/250/522
f 409/250/522 365/194/477 393/251/523 408/252/523
f 414/228/506 357/212/494 396/253/524 413/254/524
f 415/232/509 358/215/492 397/255/525
f 358/215/492 415/232/509 357/212/494
f 420/210/526 432/219/527 448/218/527 421/208/528
f 427/194/529 439/221/530 440/220/531 428/190/532
f 424/202/533 436/223/534 441/222/535 425/198/536
f 421/208/537 433/226/538 453/225/538 452/224/539
f 428/190/532 440/220/531 429/227/540 417/193/541
f 418/216/542 430/229/543 464/228/544 419/212/545
f 425/198/536 437/231/546 442/230/546 426/201/547
f 419/212/548 431/234/549 466/233/549 465/232/550
f 426/196/551 438/237/552 457/236/552 460/235/553
f 417/193/541 444/239/554 461/238/555 418/216/542
f 423/204/556 435/242/557 456/241/557 455/240/558
f 451/243/559 454/245/560 450/244/560 423/204/561
f 452/224/539 449/246/562 422/206/563 421/208/528
f 423/204/561 422/206/563 434/247/564 451/243/559
f 461/238/555 462/249/565 445/248/565 418/216/542
f 455/240/566 436/223/534 424/202/533 423/204/561
f 460/235/553 459/250/567 427/194/529 426/196/547
f 459/250/567 458/252/568 443/251/568 427/194/529
f 464/228/544 463/254/569 446/253/569 419/212/545
f 465/232/550 447/255/570 420/215/526
f 420/215/526 419/212/545 465/232/550
f 412/249/571 395/248/571 445/248/571 462/249/571
f 413/254/572 396/253/572 446/253/572 463/254/572
f 415/232/573 397/255/573 447/255/573 465/232/573
f 382/219/574 398/218/574 448/218/574 432/219/574
f 402/224/575 399/246/576 449/246/577 452/224/575
f 404/245/578 400/244/578 450/244/578 454/245/578
f 405/240/579 386/223/580 436/223/581 455/240/582
f 386/223/580 391/222/583 441/222/583 436/223/581
f 387/231/584 392/230/584 442/230/584 437/231/584
f 408/252/585 393/251/585 443/251/585 458/252/585
f 389/221/586 390/220/586 440/220/586 439/221/586
f 390/220/587 379/227/587 429/227/587 440/220/587
f 358/210/588 382/219/588 432/219/588 420/210/588
f 398/218/589 359/208/589 421/208/589 448/218/589
f 365/194/590 389/221/590 439/221/590 427/194/590
f 391/222/591 363/198/591 425/198/591 441/222/591
f 399/246/576 360/206/592 422/206/592 449/246/577
f 379/227/593 355/193/593 417/193/593 429/227/593
f 356/216/594 380/229/594 430/229/594 418/216/594
f 396/253/595 357/212/595 419/212/595 446/253/595
f 392/230/596 364/201/596 426/201/596 442/230/596
f 400/244/597 361/204/597 423/204/597 450/244/597
f 363/198/598 387/231/598 437/231/598 425/198/598
f 364/196/599 388/237/599 438/237/599 426/196/599
f 393/251/600 365/194/600 427/194/600 443/251/600
f 355/193/601 394/239/601 444/239/601 417/193/601
f 395/248/602 356/216/602 418/216/602 445/248/602
f 357/212/603 381/234/603 431/234/603 419/212/603
f 397/255/604 358/215/604 420/215/604 447/255/604
f 359/208/605 383/226/605 433/226/605 421/208/605
f 360/206/606 384/247/606 434/247/606 422/206/606
f 361/204/607 385/242/607 435/242/607 423/204/607
f 384/247/608 401/243/608 451/243/608 434/247/608
f 403/225/609 402/224/609 452/224/609 453/225/609
f 383/226/610 403/225/610 453/225/610 433/226/610
f 401/243/611 404/245/611 454/245/611 451/243/611
f 406/241/612 405/240/579 455/240/582 456/241/613
f 385/242/614 406/241/612 456/241/613 435/242/614
f 388/237/615 407/236/615 457/236/615 438/237/615
f 394/239/616 411/238/617 461/238/618 444/239/616
f 409/250/619 408/252/619 458/252/619 459/250/619
f 410/235/620 409/250/620 459/250/620 460/235/620
f 407/236/621 410/235/621 460/235/621 457/236/621
f 411/238/617 412/249/622 462/249/622 461/238/618
f 380/229/623 414/228/623 464/228/623 430/229/623
f 414/228/624 413/254/624 463/254/624 464/228/624
f 416/233/625 415/232/626 465/232/626 466/233/625
f 381/234/627 416/233/625 466/233/625 431/234/627
f 355/193/476 378/192/475 367/217/497 356/216/496
f 368/213/495 367/217/497 467/217/628 468/213/629
f 377/191/474 376/195/478 476/195/630 477/191/631
f 369/214/493 368/213/495 468/213/629 469/214/632
f 370/209/490 369/211/493 469/211/632 470/209/633
f 371/207/488 370/209/490 470/209/633 471/207/634
f 372/205/486 371/207/488 471/207/634 472/205/635
f 373/203/484 372/205/486 472/205/635 473/203/636
f 374/199/482 373/203/484 473/203/636 474/199/637
f 375/200/480 374/199/482 474/199/637 475/200/638
f 378/192/475 377/191/474 477/191/631 478/192/639
f 367/217/497 378/192/475 478/192/639 467/217/628
f 376/195/478 375/197/480 475/197/638 476/195/630
f 469/214/632 468/213/629 419/212/545 420/215/526
f 468/213/629 467/217/628 418/216/542 419/212/545
f 467/217/628 478/192/639 417/193/541 418/216/542
f 478/192/639 477/191/631 428/190/532 417/193/541
f 477/191/631 476/195/630 427/194/529 428/190/532
f 476/195/630 475/197/638 426/196/547 427/194/529
f 475/200/638 474/199/637 425/198/536 426/201/547
f 474/199/637 473/203/636 424/202/533 425/198/536
f 473/203/636 472/205/635 423/204/561 424/202/533
f 472/205/635 471/207/634 422/206/563 423/204/561
f 471/207/634 470/209/633 421/208/528 422/206/563
f 470/209/633 469/211/632 420/210/526 421/208/528
o Cylinder.005
v -0.002192 4.816993 -0.405772
v 0.000000 6.640000 0.000000
v 0.197587 4.817639 -0.346833
v 0.315312 4.889999 -0.184850
v 0.324360 4.976403 -0.000988
v 0.344040 4.817457 0.198885
v 0.178916 4.897967 0.311162
v -0.002564 4.817617 0.399377
v -0.200145 4.817639 0.342606
v -0.349711 4.817764 0.200076
v -0.303825 5.022783 -0.000832
v -0.385785 4.745032 -0.207157
v -0.202109 4.817309 -0.346980
v 0.093172 5.379784 -0.161865
v 0.161602 5.379703 -0.093843
v 0.186923 5.379657 -0.000163
v 0.161417 5.379833 0.093327
v 0.093109 5.379852 0.161485
v -0.000368 5.379722 0.186746
v -0.093427 5.379890 0.161338
v -0.162253 5.379576 0.093512
v -0.187425 5.379555 -0.000207
v -0.162297 5.379540 -0.093844
v -0.093737 5.379699 -0.161925
v -0.000327 5.379478 -0.187556
v -0.041026 4.660990 -0.468573
v 0.264989 4.609408 -0.425677
v 0.431371 4.635774 -0.224396
v 0.465847 4.680808 0.012967
v 0.423487 4.621643 0.255473
v 0.204015 4.580216 0.462738
v -0.012831 4.636711 0.489112
v -0.262341 4.578447 0.448505
v -0.447347 4.641549 0.174051
v -0.480505 4.648859 -0.041356
v -0.392925 4.643970 -0.273508
v -0.252641 4.609437 -0.432763
v -0.434455 4.609688 0.258381
v -0.498697 4.609401 0.038720
v -0.439314 4.642361 -0.206453
v 0.007020 4.680717 -0.472210
v 0.223851 4.677080 -0.412980
v 0.405806 4.648013 -0.260101
v 0.491685 4.628715 -0.011679
v 0.446565 4.593341 0.238138
v 0.257279 4.609187 0.429665
v 0.018553 4.622613 0.492526
v 0.136181 4.548215 0.495932
v 0.299093 4.539809 0.432335
v 0.413906 4.472381 0.360750
v 0.052718 4.582297 0.502294
v -0.190611 4.571823 0.471925
v -0.116434 4.588668 0.483900
v -0.489186 4.609366 -0.078134
v -0.467235 4.609554 -0.159715
v -0.417464 4.740676 -0.100623
v -0.422773 4.742918 -0.079822
v 0.110032 4.610693 -0.477471
v 0.193380 4.595671 -0.464227
v 0.354865 4.609413 -0.335790
v 0.253492 4.776671 -0.320895
v 0.497248 4.559453 -0.112241
v 0.467762 4.584377 -0.178610
v -0.002521 4.799435 -0.369833
v 0.179536 4.800000 -0.315800
v 0.284326 4.872537 -0.166549
v 0.288332 4.959026 -0.001066
v 0.313023 4.800000 0.180631
v 0.160627 4.880651 0.280087
v -0.002270 4.800000 0.363467
v -0.182243 4.800000 0.311487
v -0.319125 4.800000 0.181396
v -0.267927 5.005137 -0.000832
v -0.354423 4.727371 -0.189707
v -0.183743 4.800000 -0.315946
v -0.030999 4.644385 -0.433591
v 0.239658 4.592085 -0.400021
v 0.396340 4.618652 -0.215470
v 0.431103 4.663654 0.003037
v 0.398106 4.604549 0.229712
v 0.194760 4.563037 0.427821
v -0.003117 4.619279 0.454445
v -0.245129 4.560382 0.417241
v -0.412549 4.624232 0.164601
v -0.445797 4.631577 -0.031522
v -0.367306 4.626808 -0.248031
v -0.234036 4.592085 -0.401896
v -0.409407 4.592085 0.232637
v -0.463899 4.592085 0.029271
v -0.404484 4.624892 -0.197415
v -0.003117 4.663412 -0.437601
v 0.214702 4.659173 -0.378402
v 0.380802 4.630686 -0.234128
v 0.456790 4.611763 -0.001935
v 0.411821 4.576187 0.228207
v 0.231454 4.592085 0.404355
v 0.008632 4.605338 0.457840
v 0.126685 4.531002 0.461097
v 0.273547 4.522711 0.406740
v 0.388526 4.455287 0.334990
v 0.042797 4.565022 0.467608
v -0.180869 4.554244 0.437341
v -0.106720 4.571236 0.449234
v -0.454478 4.592085 -0.068301
v -0.432405 4.592085 -0.150677
v -0.382643 4.723371 -0.091240
v -0.388024 4.725655 -0.070103
v 0.100385 4.593086 -0.442874
v 0.184231 4.577764 -0.429650
v 0.329862 4.592085 -0.309817
v 0.228301 4.759346 -0.295103
v 0.462289 4.542427 -0.102861
v 0.432731 4.567255 -0.169684
v -0.002733 4.801134 -0.353269
v 0.171091 4.801674 -0.301680
v 0.271142 4.870931 -0.159178
v 0.274967 4.953508 -0.001179
v 0.298542 4.801674 0.172301
v 0.153037 4.878678 0.267260
v -0.002493 4.801674 0.346869
v -0.174327 4.801674 0.297240
v -0.305019 4.801674 0.173032
v -0.256136 4.997534 -0.000956
v -0.338721 4.732329 -0.181289
v -0.175759 4.801674 -0.301819
v -0.000642 5.909141 -0.021387
v 0.008221 5.909168 -0.018757
v 0.013323 5.912699 -0.011491
v 0.013518 5.916910 -0.003435
v 0.014720 5.909168 0.005411
v 0.007301 5.913094 0.010253
v -0.000630 5.909168 0.014312
v -0.009391 5.909168 0.011781
v -0.016055 5.909168 0.005448
v -0.013562 5.919154 -0.003423
v -0.017773 5.905632 -0.012618
v -0.009464 5.909168 -0.018764
vn 0.6988 0.1552 -0.6983
vn 0.9696 0.2448 -0.0044
vn 0.8446 0.2491 -0.4740
vn 0.6979 0.1549 0.6993
vn 0.8406 0.2504 0.4803
vn 0.4850 0.2499 0.8381
vn 0.2678 0.2436 0.9322
vn -0.4938 0.1464 0.8572
vn -0.4817 0.2548 0.8385
vn -0.2593 0.2470 0.9337
vn -0.6761 0.2486 0.6936
vn -0.8540 0.1691 -0.4920
vn -0.8480 0.2584 -0.4627
vn -0.9691 0.2466 0.0076
vn -0.4843 0.2584 -0.8359
vn -0.2616 0.2510 -0.9320
vn 0.4919 0.2553 -0.8324
vn 0.2618 0.2504 -0.9321
vn -0.9483 0.2394 0.2085
vn -0.4638 0.3956 -0.7927
vn -0.2559 0.3835 -0.8874
vn -0.6454 0.3977 -0.6521
vn -0.9337 0.3579 0.0137
vn -0.8786 0.4233 -0.2211
vn -0.8828 0.4137 0.2226
vn -0.4557 0.4066 0.7918
vn -0.6377 0.3963 0.6605
vn -0.2504 0.3954 0.8837
vn 0.4685 0.3815 0.7968
vn 0.2479 0.4000 0.8824
vn 0.6440 0.3981 0.6533
vn 0.9294 0.3690 -0.0080
vn 0.8815 0.4081 0.2374
vn 0.7964 0.3976 -0.4556
vn 0.4589 0.4120 -0.7872
vn 0.8664 0.4324 0.2498
vn -0.4642 0.4371 -0.7704
vn -0.6382 0.4327 -0.6367
vn -0.6238 0.4417 0.6448
vn -0.4301 0.4537 0.7805
vn 0.6376 0.4302 0.6391
vn 0.6326 0.4302 0.6440
vn -0.2526 0.4183 -0.8725
vn 0.6245 0.4394 -0.6457
vn 0.6232 0.4420 -0.6452
vn -0.8678 0.4360 0.2383
vn 0.8726 0.4287 -0.2342
vn 0.8747 0.4318 -0.2199
vn -0.8674 0.4347 -0.2423
vn -0.8680 0.4342 -0.2409
vn 0.2563 0.3953 -0.8821
vn 0.2397 0.4447 -0.8630
vn 0.2532 0.4376 -0.8628
vn -0.2453 0.4429 0.8624
vn -0.2443 0.4404 0.8639
vn 0.2372 0.4341 0.8691
vn 0.2513 0.4368 0.8638
vn 0.6457 0.4301 0.6309
vn 0.2297 0.4325 0.8719
vn 0.2253 0.4522 -0.8630
vn -0.8667 0.4371 -0.2401
vn -0.8675 0.4408 -0.2304
vn 0.6262 0.4360 -0.6463
vn 0.8705 0.4265 -0.2456
vn -0.2795 -0.9561 -0.0885
vn -0.8686 -0.4289 -0.2483
vn -0.6233 -0.6857 -0.3760
vn 0.6578 -0.6179 0.4307
vn 0.6405 -0.4291 0.6369
vn 0.4651 -0.4338 0.7717
vn 0.3641 -0.8054 0.4677
vn 0.3051 -0.7910 -0.5303
vn 0.4303 -0.4516 -0.7816
vn 0.6262 -0.4401 -0.6436
vn 0.5429 -0.6927 -0.4747
vn -0.6422 -0.4275 -0.6362
vn -0.6345 -0.4274 -0.6440
vn -0.6386 -0.4274 -0.6399
vn 0.2507 -0.4151 0.8746
vn -0.0103 -0.7877 0.6160
vn -0.2721 -0.7509 0.6017
vn -0.6333 -0.4331 0.6414
vn -0.6298 -0.4331 0.6448
vn -0.3483 -0.8087 0.4741
vn 0.8699 -0.4329 -0.2362
vn 0.0051 -0.9995 0.0319
vn -0.8732 -0.4244 0.2394
vn -0.8758 -0.4280 0.2232
vn -0.8740 -0.4257 0.2345
vn 0.8696 -0.4312 0.2406
vn 0.8677 -0.4320 0.2458
vn 0.8687 -0.4316 0.2430
vn -0.2534 -0.4326 0.8652
vn -0.2412 -0.4402 0.8649
vn 0.2435 -0.4390 -0.8649
vn 0.2428 -0.4358 -0.8667
vn 0.2435 -0.4395 -0.8646
vn -0.2374 -0.4304 -0.8709
vn -0.2480 -0.4319 -0.8672
vn 0.0527 -0.7735 -0.6315
vn -0.6456 -0.4276 -0.6327
vn -0.2167 -0.9105 -0.3521
vn -0.2314 -0.4295 -0.8729
vn -0.2287 -0.4477 0.8644
vn 0.2435 -0.4396 -0.8646
vn 0.8705 -0.4326 0.2346
vn 0.8708 -0.4367 0.2260
vn -0.6251 -0.4332 0.6493
vn -0.8724 -0.4238 0.2436
vn 0.9248 -0.3772 0.0493
vn 0.5840 -0.8115 0.0208
vn 0.4849 -0.7079 0.5136
vn 0.4881 -0.8269 -0.2794
vn -0.5576 -0.3091 0.7704
vn -0.6979 -0.1355 0.7033
vn -0.6973 -0.1363 0.7037
vn -0.7291 -0.5062 0.4607
vn -0.0452 -0.8956 0.4425
vn -0.3191 -0.8924 0.3191
vn -0.3209 -0.8922 0.3177
vn -0.0439 -0.8955 0.4428
vn -0.4238 -0.8752 0.2334
vn -0.3439 -0.8758 0.3386
vn -0.2045 -0.7395 -0.6413
vn -0.4409 -0.8770 -0.1912
vn 0.1331 -0.8561 -0.4994
vn 0.1255 0.0301 -0.9916
vn -0.3943 0.0009 0.9190
vn -0.6884 -0.3308 0.6455
vn -0.6055 0.0455 -0.7945
vn -0.7999 0.0449 0.5984
vn 0.9719 -0.1306 -0.1958
vn -0.7929 -0.0042 -0.6094
vn 0.6177 0.0066 0.7864
vn -0.1407 -0.0169 -0.9899
vn -0.9898 -0.0132 0.1415
vn 0.2629 -0.2559 0.9303
vn -0.1492 -0.0234 0.9885
vn 0.3108 -0.1248 -0.9422
vn -0.9909 0.0330 -0.1307
vn 0.9195 0.0211 0.3926
vn -0.3776 -0.0083 -0.9259
vn 0.1161 0.0396 0.9924
vn 0.6007 0.0369 -0.7986
vn 0.9338 -0.0775 -0.3493
vn 0.9917 0.0319 0.1248
vn 0.5138 -0.8162 0.2643
vn -0.0836 -0.7892 0.6084
vn 0.7716 -0.3990 -0.4955
vn -0.2961 -0.8202 0.4896
vn 0.2350 -0.8398 0.4894
vn 0.3444 -0.7965 0.4970
vn -0.4683 -0.5448 0.6956
vn -0.5042 -0.7044 -0.4995
vn -0.3013 -0.8123 -0.4993
vn -0.3030 -0.8116 -0.4995
vn -0.3675 -0.2635 0.8919
vn -0.4415 -0.8971 -0.0157
vn 0.2138 -0.1190 -0.9696
vn -0.0843 -0.8770 -0.4731
vn 0.7737 -0.2977 0.5593
vn -0.5843 -0.2873 -0.7589
vn 0.2050 -0.7507 -0.6280
vn 0.2953 -0.8447 -0.4464
vn 0.1044 -0.6193 -0.7782
vn -0.3141 -0.7788 -0.5430
vn -0.2930 -0.8826 -0.3677
vn -0.6202 -0.7825 -0.0544
vn -0.2414 -0.8068 0.5393
vn -0.1376 -0.8339 0.5344
vn 0.2632 -0.7791 0.5689
vn 0.7541 -0.6567 -0.0109
vn 0.1774 -0.8382 -0.5157
vn 0.0005 -0.8229 0.5682
vn 0.4001 -0.7696 0.4976
vn 0.2898 -0.8130 -0.5050
vn 0.1857 -0.7781 -0.6001
vn 0.9663 -0.2547 -0.0377
vn 0.9103 -0.2832 -0.3019
vn 0.4766 -0.2853 -0.8316
vn -0.0702 -0.2859 -0.9557
vn -0.5422 -0.2819 0.7915
vn -0.0001 -0.2869 0.9579
vn 0.4468 -0.2839 0.8484
vn 0.9111 -0.2912 0.2916
vn -0.8618 -0.2822 -0.4216
vn -0.9640 -0.2615 0.0479
vn -0.4828 -0.2746 -0.8315
vn -0.8998 -0.2709 0.3421
vt 0.365943 0.823167
vt 0.159648 0.820995
vt 0.158324 0.808284
vt 0.150529 0.875497
vt 0.351568 0.914660
vt 0.346976 0.926469
vt 0.354802 0.902175
vt 0.356482 0.889229
vt 0.356539 0.876194
vt 0.355091 0.863356
vt 0.168381 0.757455
vt 0.174491 0.746225
vt 0.163598 0.769534
vt 0.160246 0.782239
vt 0.158548 0.795271
vt 0.352043 0.851055
vt 0.066816 0.733773
vt 0.058594 0.762505
vt 0.070425 0.698462
vt 0.124753 0.708644
vt 0.453562 0.836978
vt 0.409711 0.826875
vt 0.459288 0.866608
vt 0.459457 0.896393
vt 0.440636 0.921531
vt 0.445457 0.952815
vt 0.407872 0.962579
vt 0.071151 0.818762
vt 0.091857 0.839257
vt 0.056362 0.792109
vt 0.481615 0.969623
vt 0.450667 0.992975
vt 0.032757 0.720820
vt 0.052357 0.695078
vt 0.488348 0.825134
vt 0.501958 0.862019
vt 0.501076 0.939283
vt 0.505879 0.962871
vt 0.477120 0.967217
vt 0.033323 0.754016
vt 0.050069 0.800352
vt 0.020298 0.792789
vt 0.476433 0.795185
vt 0.480145 0.818799
vt 0.020394 0.849499
vt 0.021634 0.837525
vt 0.028012 0.827189
vt 0.082363 0.682666
vt 0.065665 0.665742
vt 0.074375 0.665829
vt 0.021955 0.771853
vt 0.035353 0.757576
vt 0.502845 0.872694
vt 0.499745 0.884468
vt 0.491200 0.900397
vt 0.502675 0.920090
vt 0.493244 0.900311
vt 0.499227 0.906262
vt 0.490905 0.931332
vt 0.495155 0.930593
vt 0.031656 0.792676
vt 0.018017 0.784750
vt 0.079936 0.685180
vt 0.056638 0.686555
vt 0.057264 0.676445
vt 0.029962 0.825762
vt 0.022126 0.812522
vt 0.035697 0.860963
s 1
usemtl tree
f 480/256/640 494/257/641 493/258/642
f 480/259/643 495/260/644 494/261/641
f 480/259/643 496/262/645 495/260/644
f 480/259/643 497/263/646 496/262/645
f 480/259/647 498/264/648 497/263/649
f 480/259/647 499/265/650 498/264/648
f 480/256/651 501/266/652 500/267/653
f 480/256/651 502/268/654 501/266/652
f 480/256/651 503/269/655 502/268/654
f 480/256/640 493/258/642 492/270/656
f 480/256/640 492/270/656 503/269/657
f 480/259/651 500/271/653 499/265/658
f 491/272/659 502/268/654 503/269/655 479/273/660
f 490/274/661 501/266/652 502/268/654 491/272/659
f 489/275/662 500/267/653 501/266/652 490/274/663
f 488/276/664 499/265/658 500/271/653 489/277/662
f 487/278/665 498/264/648 499/265/650 488/276/666
f 486/279/667 497/263/649 498/264/648 487/278/665
f 485/280/668 496/262/645 497/263/646 486/279/669
f 484/281/670 495/260/644 496/262/645 485/280/668
f 483/282/671 494/261/641 495/260/644 484/281/672
f 482/283/673 493/258/642 494/257/641 483/284/671
f 481/285/674 492/270/656 493/258/642 482/283/673
f 483/282/671 484/281/672 523/286/675 507/287/675
f 490/274/661 491/272/659 515/288/676 514/289/677
f 487/278/665 488/276/666 516/290/678 511/291/679
f 484/281/670 527/292/680 528/293/681 508/294/681
f 491/272/659 479/273/660 504/295/682 515/288/676
f 481/285/674 482/283/673 539/296/683 505/297/684
f 488/276/664 489/277/662 517/298/685 512/299/685
f 482/283/673 540/300/686 541/301/687 506/302/687
f 489/275/662 535/303/688 532/304/689 513/305/689
f 479/273/690 481/285/674 536/306/691 519/307/692
f 486/279/667 530/308/693 531/309/694 510/310/694
f 526/311/695 486/279/669 525/312/696 529/313/696
f 527/292/680 484/281/670 485/280/668 524/314/697
f 486/279/669 526/311/695 509/315/698 485/280/668
f 536/306/691 481/285/674 520/316/699 537/317/699
f 530/308/693 486/279/667 487/278/665 511/291/679
f 535/303/688 489/275/662 490/274/663 534/318/700
f 534/318/700 490/274/663 518/319/701 533/320/701
f 539/296/683 482/283/673 521/321/702 538/322/702
f 540/300/686 483/284/671 522/323/703
f 483/284/671 540/300/686 482/283/673
f 545/282/704 557/287/705 573/286/705 546/281/706
f 552/274/707 564/289/708 565/288/709 553/272/710
f 549/278/711 561/291/712 566/290/713 550/276/714
f 546/281/715 558/294/716 578/293/716 577/292/717
f 553/272/710 565/288/709 554/295/718 542/273/719
f 543/285/720 555/297/721 589/296/722 544/283/723
f 550/276/714 562/299/724 567/298/724 551/277/725
f 544/283/726 556/302/727 591/301/727 590/300/728
f 551/275/729 563/305/730 582/304/730 585/303/731
f 542/273/719 569/307/732 586/306/733 543/285/720
f 548/279/734 560/310/735 581/309/735 580/308/736
f 576/311/737 579/313/738 575/312/738 548/279/739
f 577/292/717 574/314/740 547/280/741 546/281/706
f 548/279/739 547/280/741 559/315/742 576/311/737
f 586/306/733 587/317/743 570/316/743 543/285/720
f 580/308/744 561/291/712 549/278/711 548/279/739
f 585/303/731 584/318/745 552/274/707 551/275/725
f 584/318/745 583/320/746 568/319/746 552/274/707
f 589/296/722 588/322/747 571/321/747 544/283/723
f 590/300/728 572/323/748 545/284/704
f 545/284/704 544/283/723 590/300/728
f 537/317/749 520/316/749 570/316/749 587/317/749
f 538/322/750 521/321/750 571/321/750 588/322/750
f 540/300/751 522/323/751 572/323/751 590/300/751
f 507/287/752 523/286/752 573/286/752 557/287/752
f 527/292/753 524/314/754 574/314/755 577/292/753
f 529/313/756 525/312/756 575/312/756 579/313/756
f 530/308/757 511/291/758 561/291/759 580/308/760
f 511/291/758 516/290/761 566/290/761 561/291/759
f 512/299/762 517/298/762 567/298/762 562/299/762
f 533/320/763 518/319/763 568/319/763 583/320/763
f 514/289/764 515/288/764 565/288/764 564/289/764
f 515/288/765 504/295/765 554/295/765 565/288/765
f 483/282/766 507/287/766 557/287/766 545/282/766
f 523/286/767 484/281/767 546/281/767 573/286/767
f 490/274/768 514/289/768 564/289/768 552/274/768
f 516/290/769 488/276/769 550/276/769 566/290/769
f 524/314/754 485/280/770 547/280/770 574/314/755
f 504/295/771 479/273/771 542/273/771 554/295/771
f 481/285/772 505/297/772 555/297/772 543/285/772
f 521/321/773 482/283/773 544/283/773 571/321/773
f 517/298/774 489/277/774 551/277/774 567/298/774
f 525/312/775 486/279/775 548/279/775 575/312/775
f 488/276/776 512/299/776 562/299/776 550/276/776
f 489/275/777 513/305/777 563/305/777 551/275/777
f 518/319/778 490/274/778 552/274/778 568/319/778
f 479/273/779 519/307/779 569/307/779 542/273/779
f 520/316/780 481/285/780 543/285/780 570/316/780
f 482/283/781 506/302/781 556/302/781 544/283/781
f 522/323/782 483/284/782 545/284/782 572/323/782
f 484/281/783 508/294/783 558/294/783 546/281/783
f 485/280/784 509/315/784 559/315/784 547/280/784
f 486/279/785 510/310/785 560/310/785 548/279/785
f 509/315/786 526/311/786 576/311/786 559/315/786
f 528/293/787 527/292/787 577/292/787 578/293/787
f 508/294/788 528/293/788 578/293/788 558/294/788
f 526/311/789 529/313/789 579/313/789 576/311/789
f 531/309/790 530/308/757 580/308/760 581/309/790
f 510/310/791 531/309/790 581/309/790 560/310/791
f 513/305/792 532/304/792 582/304/792 563/305/792
f 519/307/793 536/306/794 586/306/795 569/307/793
f 534/318/796 533/320/796 583/320/796 584/318/796
f 535/303/797 534/318/797 584/318/797 585/303/797
f 532/304/798 535/303/798 585/303/798 582/304/798
f 536/306/794 537/317/799 587/317/799 586/306/795
f 505/297/800 539/296/800 589/296/800 555/297/800
f 539/296/801 538/322/801 588/322/801 589/296/801
f 541/301/802 540/300/803 590/300/803 591/301/802
f 506/302/804 541/301/802 591/301/802 556/302/804
f 479/273/690 503/269/657 492/270/656 481/285/674
f 546/281/706 547/280/741 597/280/805 596/281/806
f 544/283/723 545/284/704 595/284/807 594/283/808
f 543/285/720 544/283/723 594/283/808 593/285/809
f 551/275/725 552/274/707 602/274/810 601/275/811
f 547/280/741 548/279/739 598/279/812 597/280/805
f 553/272/710 542/273/719 592/273/813 603/272/814
f 548/279/739 549/278/711 599/278/815 598/279/812
f 550/276/714 551/277/725 601/277/811 600/276/816
f 545/282/704 546/281/706 596/281/806 595/282/807
f 552/274/707 553/272/710 603/272/814 602/274/810
f 542/273/719 543/285/720 593/285/809 592/273/813
f 549/278/711 550/276/714 600/276/816 599/278/815
f 600/276/816 601/277/811 613/277/817 612/276/818
f 599/278/815 600/276/816 612/276/818 611/278/819
f 598/279/812 599/278/815 611/278/819 610/279/820
f 592/273/813 593/285/809 605/285/821 604/273/822
f 603/272/814 592/273/813 604/273/822 615/272/823
f 601/275/811 602/274/810 614/274/824 613/275/817
f 595/282/807 596/281/806 608/281/825 607/282/826
f 596/281/806 597/280/805 609/280/827 608/281/825
f 593/285/809 594/283/808 606/283/828 605/285/821
f 594/283/808 595/284/807 607/284/826 606/283/828
f 602/274/810 603/272/814 615/272/823 614/274/824
f 597/280/805 598/279/812 610/279/820 609/280/827
o Cylinder.006
v 0.240793 -0.000000 -0.417066
v 0.075000 2.550000 -0.129904
v 0.481586 0.000000 0.000000
v 0.150000 2.550000 -0.000000
v 0.240793 0.000000 0.417066
v 0.075000 2.550000 0.129904
v -0.240793 0.000000 0.417066
v -0.075000 2.550000 0.129904
v -0.481586 0.000000 0.000000
v -0.150000 2.550000 -0.000000
v -0.240793 -0.000000 -0.417066
v -0.075000 2.550000 -0.129904
v 0.075000 1.200000 -0.129904
v 0.150000 1.200000 -0.000000
v 0.075000 1.200000 0.129904
v -0.075000 1.200000 0.129904
v -0.150000 1.200000 -0.000000
v -0.075000 1.200000 -0.129904
v 0.143390 0.394225 -0.248358
v 0.286779 0.394225 -0.000000
v 0.143390 0.394225 0.248358
v -0.143390 0.394225 0.248358
v -0.286779 0.394225 -0.000000
v -0.143390 0.394225 -0.248358
v 0.035202 5.226216 -0.060971
v 0.070403 5.226216 -0.000000
v 0.035202 5.226216 0.060971
v -0.035202 5.226216 0.060971
v -0.070403 5.226216 -0.000000
v -0.035202 5.226216 -0.060971
v 0.015173 5.912838 -0.026281
v 0.030347 5.912838 -0.000000
v 0.015173 5.912838 0.026281
v -0.015173 5.912838 0.026281
v -0.030347 5.912838 -0.000000
v -0.015173 5.912838 -0.026281
vn 0.8305 0.2834 -0.4795
vn 0.7962 0.3934 -0.4597
vn -0.0000 0.0748 -0.9972
vn -0.0000 0.2834 -0.9590
vn -0.8636 0.0748 -0.4986
vn -0.8305 0.2834 -0.4795
vn -0.8636 0.0748 0.4986
vn -0.8305 0.2834 0.4795
vn -0.0000 0.0748 0.9972
vn -0.0000 0.2834 0.9590
vn 0.8636 0.0748 0.4986
vn 0.8305 0.2834 0.4795
vn -0.9999 0.0148 -0.0000
vn -0.4999 0.0148 -0.8659
vn 0.7962 0.3934 0.4597
vn -0.0000 0.3934 0.9194
vn -0.7962 0.3934 0.4597
vn -0.7962 0.3934 -0.4597
vn -0.0000 0.3934 -0.9194
vn 0.4999 0.0148 -0.8659
vn -0.4999 0.0148 0.8659
vn 0.4999 0.0148 0.8659
vn 0.9999 0.0148 -0.0000
vn 0.8636 0.0748 -0.4986
vn -0.4995 0.0438 0.8652
vn -0.9990 0.0438 -0.0000
vn -0.4995 0.0438 -0.8652
vn 0.4995 0.0438 -0.8652
vn 0.9990 0.0438 -0.0000
vn 0.4995 0.0438 0.8652
vn 0.9983 0.0582 -0.0000
vn 0.4992 0.0582 0.8646
vn -0.4992 0.0582 0.8646
vn -0.9983 0.0582 -0.0000
vn -0.4992 0.0582 -0.8646
vn 0.4992 0.0582 -0.8646
vt 0.927557 0.785585
vt 0.965685 0.781707
vt 0.985288 0.831489
vt 0.927167 0.842077
vt 0.920522 0.671654
vt 0.940434 0.675832
vt 0.888468 0.777429
vt 0.901231 0.666456
vt 0.854506 0.758195
vt 0.684275 0.910828
vt 0.679533 0.891316
vt 0.772695 0.847353
vt 0.790727 0.881170
vt 0.687951 0.930838
vt 0.797986 0.920436
vt 0.690448 0.950660
vt 0.793050 0.959153
vt 0.936225 0.499667
vt 0.955424 0.503588
vt 0.855631 0.918836
vt 0.845110 0.980386
vt 0.843156 0.860133
vt 0.811341 0.810354
vt 0.868113 0.831385
vt 0.815135 0.798333
vt 0.974625 0.507507
vt 0.515543 0.942946
vt 0.511896 0.923691
vt 0.519188 0.962200
vt 0.522832 0.981454
vt 0.993827 0.511426
vt 0.960288 0.678835
s 1
usemtl tree
f 634/324/829 635/325/829 618/326/830 616/327/830
f 633/328/831 628/329/831 634/324/832 639/330/832
f 632/331/833 633/328/833 639/330/834 638/332/834
f 631/333/835 632/334/835 638/335/836 637/336/836
f 630/337/837 631/333/837 637/336/838 636/338/838
f 629/339/839 630/337/839 636/338/840 635/340/840
f 632/331/833 625/341/841 627/342/842 633/328/833
f 635/340/840 636/338/840 620/343/843 618/344/843
f 636/338/838 637/336/838 622/345/844 620/343/844
f 637/336/836 638/335/836 624/346/845 622/345/845
f 638/332/834 639/330/834 626/347/846 624/348/846
f 626/347/847 639/330/832 634/324/832 616/327/847
f 617/349/848 628/329/831 633/328/831 627/342/842
f 631/333/835 623/350/849 625/351/841 632/334/835
f 630/337/837 621/352/850 623/350/849 631/333/837
f 629/339/839 619/353/851 621/352/850 630/337/839
f 628/329/852 617/349/848 619/354/851 629/355/852
f 628/329/852 629/355/852 635/325/829 634/324/829
f 625/351/841 623/350/849 643/350/853 644/351/854
f 627/342/842 625/341/841 644/341/854 645/342/855
f 617/349/848 627/342/842 645/342/855 640/349/856
f 619/354/851 617/349/848 640/349/856 641/354/857
f 621/352/850 619/353/851 641/353/857 642/352/858
f 623/350/849 621/352/850 642/352/858 643/350/853
f 642/352/858 641/353/857 647/353/859 648/352/860
f 644/351/854 643/350/853 649/350/861 650/351/862
f 645/342/855 644/341/854 650/341/862 651/342/863
f 641/354/857 640/349/856 646/349/864 647/354/859
f 643/350/853 642/352/858 648/352/860 649/350/861
f 640/349/856 645/342/855 651/342/863 646/349/864
